<?xml version="1.0" encoding="utf-8"?>
<!-- Generator: Adobe Illustrator 22.1.0, SVG Export Plug-In . SVG Version: 6.00 Build 0)  -->
<svg version="1.1" id="Layer_1" xmlns="http://www.w3.org/2000/svg" xmlns:xlink="http://www.w3.org/1999/xlink" x="0px" y="0px"
	 viewBox="0 0 528 219" style="enable-background:new 0 0 528 219;" xml:space="preserve">
<style type="text/css">
	.st0{fill:#E53045;}
	.st1{fill:#3A94D1;}
	.st2{fill:url(#SVGID_1_);}
	.st3{fill:url(#SVGID_2_);}
</style>
<g>
	<g>
		<path class="st0" d="M275,75.8l-45.9-0.2c0.2,3.3,1,6.3,2.7,8.9c1.6,2.6,3.8,4.7,6.4,6.1c2.6,1.5,5.6,2.2,8.7,2.2
			c3.2,0,6.2-0.7,8.9-2.2c2.7-1.5,4.9-3.5,6.6-6.2l9.3,4c-2.4,4.4-5.8,7.8-10.1,10.3s-9.3,3.7-14.7,3.7c-5.5,0-10.5-1.3-14.9-3.9
			c-4.4-2.5-7.9-6-10.4-10.4s-3.7-9.2-3.7-14.4c0-5.2,1.3-10,3.9-14.3c2.5-4.3,6-7.8,10.4-10.3c4.4-2.5,9.3-3.8,14.7-3.7
			c5.2,0,9.9,1.2,14.2,3.6c4.3,2.4,7.6,5.7,10.1,10c2.5,4.3,3.8,9,3.9,14.4L275,75.8z M236.1,58.3c-3.1,2.4-5.2,5.5-6.3,9.5
			l33.5,0.2c-0.5-2.6-1.6-4.9-3.1-6.9c-1.5-2-3.4-3.5-5.7-4.6c-2.3-1.1-4.8-1.6-7.5-1.6C242.8,54.7,239.1,55.9,236.1,58.3z"/>
		<path class="st0" d="M295.6,55.8l-0.1,28.6c0,2.6,0.6,4.6,2,6c1.3,1.4,3.1,2.1,5.4,2.1l6,0l0,9.3l-8.3,0c-3.4,0-6.3-0.7-8.8-1.9
			c-2.5-1.3-4.4-3.1-5.8-5.5c-1.4-2.4-2-5.3-2-8.7l0.2-29.9l-9,0l0-8.9l9,0l0.1-15.2l11.5,0.1l-0.1,15.2l13.5,0.1l0,8.9L295.6,55.8z
			"/>
		<path class="st0" d="M324.4,99.2c-4.1-2.5-7.4-6-9.9-10.4c-2.4-4.4-3.7-9.2-3.6-14.5c0-5.2,1.3-10,3.8-14.4
			c2.5-4.4,5.8-7.8,10-10.3s8.6-3.7,13.5-3.7c4.2,0,8,0.9,11.3,2.5c3.4,1.6,6.1,3.9,8.4,6.8l0.1-8l11.5,0.1l-0.3,54.8l-11.5-0.1l0-8
			c-2.3,2.8-5.1,5-8.4,6.6c-3.4,1.6-7.2,2.4-11.4,2.3C333,103,328.6,101.7,324.4,99.2z M349.6,90.4c2.8-1.6,5-3.8,6.6-6.5
			s2.4-5.9,2.4-9.3c0-3.4-0.8-6.5-2.3-9.3c-1.6-2.8-3.7-5-6.5-6.6c-2.8-1.6-5.8-2.4-9.1-2.4c-3.3,0-6.4,0.8-9.1,2.3
			c-2.8,1.6-5,3.7-6.6,6.5c-1.6,2.8-2.5,5.8-2.5,9.3c0,3.4,0.8,6.5,2.4,9.3c1.6,2.8,3.8,5,6.5,6.6c2.8,1.6,5.8,2.4,9.1,2.4
			C343.8,92.8,346.8,92,349.6,90.4z"/>
		<path class="st0" d="M383.8,35c-1.1-0.6-2-1.5-2.7-2.6c-0.7-1.1-1-2.3-1-3.6c0-1.3,0.3-2.6,1-3.6c0.7-1.1,1.5-1.9,2.7-2.6
			s2.3-0.9,3.6-0.9c1.3,0,2.5,0.3,3.6,1c1.1,0.6,2,1.5,2.6,2.6c0.7,1.1,1,2.3,1,3.7c0,1.3-0.3,2.5-1,3.6c-0.7,1.1-1.5,2-2.7,2.6
			s-2.3,0.9-3.6,0.9C386.1,36,384.9,35.7,383.8,35z M381.4,47.3l11.5,0.1l-0.3,54.8l-11.5-0.1L381.4,47.3z"/>
		<path class="st0" d="M405.1,22.8l11.5,0.1l-0.4,79.5l-11.5-0.1L405.1,22.8z"/>
	</g>
	<g>
		<path class="st1" d="M231,171.7c1.2,2.8,3.1,5,5.6,6.8c2.8,2,5.6,3,8.4,3c3.7,0,6.9-1.5,9.6-4.6c2.5-2.8,3.9-6.4,4.2-10.6
			c-4.3,2.8-9.1,4.2-14.2,4.2c-7.2,0-13.4-2.7-18.4-7.9c-5.1-5.2-7.6-11.5-7.6-18.8c0-7.3,2.6-13.5,7.8-18.7
			c5.1-5.1,11.3-7.7,18.5-7.7c5.2,0,9.9,1.5,14.2,4.4l0-3.9l11.8,0.1l-0.2,47.3c-0.2,8.1-2.8,14.8-7.9,20.1c-5.1,5.4-11.1,8-17.9,8
			c-5.2,0-10.2-1.8-15.1-5.2c-4.5-3.2-7.8-7.3-9.9-12.3L231,171.7z M244.6,158.6c3.9,0,7.3-1.4,10.1-4.2c2.8-2.9,4.2-6.3,4.2-10.4
			c0-4-1.4-7.5-4.1-10.4c-2.8-2.9-6.1-4.3-10.1-4.3c-3.9,0-7.3,1.4-10.1,4.2c-2.8,2.8-4.2,6.3-4.2,10.3c0,4.1,1.4,7.5,4.1,10.4
			C237.3,157.1,240.7,158.6,244.6,158.6z"/>
		<path class="st1" d="M290.6,122.9c4.3-3.1,9.1-4.7,14.4-4.6l5.8,0l-0.1,11.6l-5.8,0c-3.9,0-7.3,1.6-10.2,4.8
			c-2.8,3.2-4.2,7.1-4.2,11.6l-0.1,28.2l-11.6-0.1l0.3-56.3l11.6,0.1L290.6,122.9z"/>
		<path class="st1" d="M340.8,117.8c7.8,0,14.4,2.9,19.9,8.5c5.5,5.6,8.2,12.4,8.2,20.3c0,7.9-2.8,14.7-8.4,20.2
			c-5.6,5.6-12.2,8.4-20,8.3c-7.8,0-14.4-2.9-19.9-8.5c-5.5-5.6-8.2-12.4-8.2-20.3c0-7.9,2.8-14.7,8.4-20.2
			C326.3,120.6,333,117.8,340.8,117.8z M340.5,163.4c4.5,0,8.4-1.6,11.6-4.8c3.2-3.3,4.8-7.3,4.9-11.9s-1.6-8.7-4.7-12
			c-3.2-3.3-7.1-4.9-11.6-5c-4.5,0-8.4,1.6-11.7,4.8c-3.2,3.3-4.8,7.3-4.8,11.9c0,4.7,1.5,8.7,4.7,12
			C332.1,161.7,336,163.4,340.5,163.4z"/>
		<path class="st1" d="M402.2,130c-4.5,0-8.4,1.6-11.6,4.8c-3.2,3.3-4.8,7.3-4.9,11.9c0,4.7,1.6,8.7,4.7,12c3.2,3.3,7,4.9,11.6,5
			c5.5,0,10-2.2,13.3-6.8l9.6,6.9c-5.7,7.9-13.4,11.8-23,11.8c-7.8,0-14.4-2.9-19.9-8.5c-5.5-5.6-8.2-12.4-8.2-20.3
			c0-7.9,2.8-14.7,8.4-20.2c5.5-5.6,12.2-8.4,20-8.3c9.6,0,17.2,4.1,22.9,12l-9.7,6.8C412.2,132.4,407.8,130,402.2,130z"/>
		<path class="st1" d="M480.4,163.2c-2.4,3.6-5.4,6.5-9.2,8.7c-4.4,2.6-9.2,3.9-14.3,3.9c-7.8,0-14.4-2.9-19.9-8.5
			c-5.5-5.6-8.2-12.4-8.2-20.3c0-7.9,2.8-14.7,8.4-20.2c5.5-5.6,12.2-8.4,20-8.3c7.8,0,14.4,2.9,19.9,8.5c5.5,5.6,8.2,12.4,8.2,20.3
			l0,4.9l-43.6-0.2c0.9,3.7,2.9,6.7,5.9,9c2.8,2.1,6,3.1,9.4,3.1c5.7,0,10.1-2.2,13.2-6.7L480.4,163.2z M472.4,141.3
			c-1.2-3.2-3.1-5.9-5.9-7.9c-2.8-2.1-6-3.1-9.4-3.1c-3.5,0-6.6,1-9.5,3c-2.8,2-4.8,4.6-6,7.8L472.4,141.3z"/>
		<path class="st1" d="M503.8,123.9c4.3-3.1,9.1-4.7,14.4-4.6l5.8,0l-0.1,11.6l-5.8,0c-3.9,0-7.3,1.6-10.2,4.8
			c-2.8,3.2-4.2,7.1-4.2,11.6l-0.1,28.2l-11.6-0.1l0.3-56.3l11.6,0.1L503.8,123.9z"/>
	</g>
	<g>
		<linearGradient id="SVGID_1_" gradientUnits="userSpaceOnUse" x1="5.0637" y1="109.8942" x2="190.0571" y2="109.8942">
			<stop  offset="1.502404e-03" style="stop-color:#EF4358"/>
			<stop  offset="0.5438" style="stop-color:#8C5F85"/>
			<stop  offset="1" style="stop-color:#1565AA"/>
		</linearGradient>
		<polygon class="st2" points="156.5,83 156.5,83.1 72.6,131.5 104.3,148.9 156.5,118.9 156.5,143.9 97.6,177.9 38.7,143.9 
			38.7,75.9 97.6,41.9 141.8,67.1 174.8,47.5 97.6,3.1 5.1,56.5 5.1,163.3 97.6,216.7 190.1,163.3 190.1,63.6 		"/>
		<linearGradient id="SVGID_2_" gradientUnits="userSpaceOnUse" x1="61.6963" y1="90.0113" x2="119.331" y2="90.0113">
			<stop  offset="1.502404e-03" style="stop-color:#EF4358"/>
			<stop  offset="0.5438" style="stop-color:#8C5F85"/>
			<stop  offset="1" style="stop-color:#1565AA"/>
		</linearGradient>
		<polygon class="st3" points="97.9,67.3 61.7,88.2 61.7,111.9 62.1,112.7 119.3,79.7 		"/>
	</g>
</g>
</svg>
