<?xml version="1.0" ?><!DOCTYPE svg  PUBLIC '-//W3C//DTD SVG 1.1//EN'  'http://www.w3.org/Graphics/SVG/1.1/DTD/svg11.dtd'>
<svg height="1988px" style="shape-rendering:geometricPrecision; text-rendering:geometricPrecision; image-rendering:optimizeQuality; fill-rule:evenodd; clip-rule:evenodd" version="1.1" viewBox="0 0 142 142" width="1988px" xml:space="preserve" xmlns="http://www.w3.org/2000/svg" xmlns:xlink="http://www.w3.org/1999/xlink">
	<defs>
		<style type="text/css">
		   <![CDATA[
		    .str0 {stroke:#727271;stroke-width:0.597081}
		    .fil0 {fill:#FEFEFE}
		    .fil2 {fill:#0075BA}
		    .fil1 {fill:#00A758}
		   ]]>
		</style>
	</defs>
  	<g id="Layer_x0020_1">
	  	<g id="_1956887637920">
	  		<g>
		  		<path class="fil1" d="M80 67c2,0 3,1 3,4 0,3 -1,4 -3,4l0 -8zm-7 0l1 0c0,0 0,12 0,13 2,0 4,0 5,0 3,0 6,0 7,-2 1,-1 2,-1 2,-3 1,-2 1,-6 0,-8 0,-2 -1,-2 -2,-3 -3,-3 -7,-2 -12,-2l-1 5z"/>
		  		<path class="fil1" d="M113 70c-1,0 0,-2 0,-3 3,-1 3,3 0,3zm-7 -3l1 0 0 13 6 0 0 -5c0,1 2,4 2,5l6 0 -4 -7c2,-1 3,-1 3,-4 1,-4 -1,-7 -6,-7 -2,0 -4,0 -7,0 0,0 -1,4 -1,5z"/>
		  		<path class="fil2" d="M15 73l1 0c2,0 2,3 0,3l-1 0 0 -3zm0 -7c1,0 2,0 2,2 0,1 -1,1 -2,1l0 -3zm-7 1l2 0c0,0 0,12 0,13 1,0 4,0 6,0 4,0 8,-1 7,-6 0,-1 0,-1 -1,-2 0,-1 -1,-1 -2,-1 3,-1 3,-6 1,-8 -2,-2 -8,-1 -11,-1l-2 5z"/>
		  		<path class="fil2" d="M35 67l2 0c0,3 -1,7 1,10 1,3 4,5 8,4 3,-1 5,-4 5,-7 0,-4 0,-9 0,-12l-5 0c0,2 0,5 0,7 0,2 0,6 -2,6 -2,0 -2,-4 -2,-6 0,-2 0,-5 0,-7l-5 0c0,0 0,0 0,0 0,0 0,1 0,1 -1,0 -1,1 -1,1 0,1 -1,2 -1,3z"/>
		  		<path class="fil1" d="M98 67c0,1 1,6 1,7l-3 0c1,-2 1,-4 2,-7zm-6 0l1 0 -4 13c8,0 6,1 6,-2 1,0 1,0 5,0l0 2 6 0 -5 -18 -8 0c0,0 -1,4 -1,5z"/>
		  		<path class="fil2" d="M52 67l2 0c0,0 0,12 0,13l9 0 2 -5 -5 0 -1 -2 4 0 1 -4 -5 0 1 -2 3 0 1 -5 -10 0 -2 5z"/>
		  		<path class="fil1" d="M121 67l4 0 0 13 5 0 0 -13c3,0 3,0 3,-3 1,0 1,-1 1,-2l-11 0 -2 5z"/>
		  		<path class="fil2" d="M24 67l1 0 0 13 9 0 1 -5 -4 0 0 -13 -6 0c0,0 -1,5 -1,5z"/>
		  	</g>
  		</g>
	</g>
</svg>