<svg xmlns="http://www.w3.org/2000/svg" width="297.667" height="17.334" viewBox="0 0 297.667 17.334"><defs><style>.a,.d,.i{fill:#fff;}.a{stroke:#e0e0e0;stroke-width:0.667px;}.b{fill:#4e4e4e;font-size:4.5px;font-family:Roboto-Medium, Roboto;font-weight:500;}.c{fill:#212121;font-size:10px;font-family:SegoeUI, Segoe UI;}.e,.g{fill:#f58220;}.f{fill:#1a1919;}.f,.g,.h,.m,.p,.q,.r{fill-rule:evenodd;}.h{fill:#184977;}.i{stroke:#184977;}.j{fill:#0079c1;}.k{fill:#007bdb;}.l{fill:#e42b00;}.m{fill:#1740ce;}.n{fill:#c00;}.o{fill:#f90;}.p{fill:#f16d27;}.q{fill:#191975;}.r{fill:#ec982d;}</style></defs><g transform="translate(-0.333 -0.334)"><g transform="translate(262 1)"><rect class="a" width="36" height="16.667" rx="1" transform="translate(-0.333 -0.333)"/><text class="b" transform="translate(10.701 8.733)"><tspan x="0" y="0">CASH ON </tspan><tspan x="0" y="4.5">DELIVERY</tspan></text><text class="c" transform="translate(3.635 13.5)"><tspan x="0" y="0">₹</tspan></text></g><g transform="translate(220.667 1)"><rect class="a" width="36" height="16.667" rx="1" transform="translate(-0.333 -0.333)"/><text class="b" transform="translate(12.114 8.733)"><tspan x="0" y="0">NET </tspan><tspan x="0" y="4.5">BANKING</tspan></text><path d="M6.164,3.04a.964.964,0,0,1,.947.974V5A2.458,2.458,0,0,1,9.319,7.481v2.6a2.42,2.42,0,1,1-4.837,0v-2.6A2.457,2.457,0,0,1,6.69,5V4.014a.528.528,0,0,0-.526-.541.516.516,0,0,0-.526.548l-.006.217a.944.944,0,1,1-1.887-.007.218.218,0,0,1,.105-.19.205.205,0,0,1,.212,0,.22.22,0,0,1,.1.19.523.523,0,1,0,1.045-.007l.007-.216a.969.969,0,0,1,.946-.969ZM6.9,6.072a.32.32,0,0,0-.315.325V7.48a.316.316,0,1,0,.631,0V6.4A.32.32,0,0,0,6.9,6.073Z"/></g><g transform="translate(184.333 1)"><rect class="d" width="31.333" height="16" rx="1.24"/><path class="e" d="M11.118,16H30.1a1.232,1.232,0,0,0,1.234-1.235V9s-7.14,4.836-20.215,7Z"/></g><path class="f" d="M189.064,8.444a1.442,1.442,0,0,1-1.014.292h-.2V6.31h.2a1.412,1.412,0,0,1,1.014.3,1.219,1.219,0,0,1,.407.913A1.242,1.242,0,0,1,189.064,8.444ZM188.2,5.689h-1.088V9.357h1.08a2.022,2.022,0,0,0,1.355-.424,1.819,1.819,0,0,0,.688-1.409A1.856,1.856,0,0,0,188.2,5.689Zm2.377,0h.737V9.357h-.737Zm2.547,1.406c-.445-.158-.575-.263-.575-.461,0-.23.233-.406.552-.406a.777.777,0,0,1,.6.3l.385-.489a1.684,1.684,0,0,0-1.114-.407,1.1,1.1,0,0,0-1.183,1.049c0,.507.238.764.932,1.008a2.831,2.831,0,0,1,.512.21.434.434,0,0,1,.222.378.533.533,0,0,1-.575.517.877.877,0,0,1-.807-.49l-.477.447a1.488,1.488,0,0,0,1.313.7,1.208,1.208,0,0,0,1.309-1.2c0-.584-.251-.849-1.093-1.146m1.325.429a1.934,1.934,0,0,0,2,1.915,2.086,2.086,0,0,0,.926-.214V8.382a1.194,1.194,0,0,1-.893.4,1.217,1.217,0,0,1-1.273-1.265,1.242,1.242,0,0,1,2.166-.847V5.83a1.942,1.942,0,0,0-.91-.224,1.962,1.962,0,0,0-2.019,1.918m8.922.628-1.011-2.463h-.807l1.609,3.761h.4l1.64-3.761h-.8l-1.026,2.463m2.161,1.2h2.1V8.736h-1.358v-.99h1.307V7.124h-1.307V6.31h1.358V5.69h-2.1V9.358m3.543-1.982h-.215V6.266h.227c.462,0,.71.188.71.545s-.248.565-.722.565Zm1.484-.605c0-.687-.488-1.082-1.342-1.082h-1.1V9.357h.742V7.882h.1l1.022,1.475h.91L209.7,7.811a.983.983,0,0,0,.864-1.04Z"/><path class="g" d="M201.657,7.533a1.979,1.979,0,1,1-1.978-1.913,1.945,1.945,0,0,1,1.978,1.913"/><g transform="translate(147.667 1)"><rect class="a" width="32" height="16.667" rx="1" transform="translate(-0.333 -0.333)"/><g transform="translate(7.075 2.5)"><path class="h" d="M5.56.5h6.111a5,5,0,1,1,0,10H5.56Z"/><ellipse class="i" cx="4.554" cy="4.5" rx="4.554" ry="4.5" transform="translate(1.005 1)"/><path class="h" d="M7.58,5.5A2.412,2.412,0,0,0,6.065,3.25v4.5A2.412,2.412,0,0,0,7.58,5.5ZM5.054,7.75V3.25a2.428,2.428,0,0,0,0,4.5Z"/></g></g><g transform="translate(111 1)"><rect class="a" width="32" height="16.667" rx="1" transform="translate(-0.333 -0.333)"/><path class="j" d="M17.789,10.691l-.28-.346v.346h-.916V10.1a.933.933,0,0,1-.386.082h-.323v.506H14.5l-.254-.332-.25.332H11.7V8.506h2.307l.253.329.25-.329h8.393V1H9V6.866l.519-1.224h.9l.292.683V5.642h1.127l.173.495.173-.495h5.033v.253a1.07,1.07,0,0,1,.72-.253h1.6l.292.683V5.642h.95l.25.39v-.39h.947V7.825h-.94l-.253-.394v.394H19.407l-.137-.333H18.9l-.135.333h-.853a1.037,1.037,0,0,1-.692-.235v.235H15.81l-.28-.345v.345H10.293l-.137-.333H9.78l-.135.333H9v7.087H22.908V10.529a.878.878,0,0,1-.528.162H17.789Z"/><path class="j" d="M22.755,9.146l.162-.368h-.864a.519.519,0,0,0-.569.518A.461.461,0,0,0,22,9.782h.389a.135.135,0,0,1,.147.137.133.133,0,0,1-.147.133h-.858v.368h.846a.519.519,0,0,0,.568-.533c0-.3-.187-.47-.518-.47h-.382a.135.135,0,1,1,0-.27h.707Zm-2.348.135a.135.135,0,0,1,.149-.135h.7l.173-.366H20.57A.519.519,0,0,0,20,9.3a.46.46,0,0,0,.518.486h.39a.137.137,0,0,1,.148.136.135.135,0,0,1-.149.133h-.876v.368h.845a.519.519,0,0,0,.565-.535c0-.3-.186-.47-.518-.47h-.379a.135.135,0,0,1-.148-.135h.008Zm-1.9,1.137h1.335V10.05h-.914V9.772h.9V9.414h-.9V9.146h.92V8.778H18.506v1.64Zm-.067,0-.525-.6a.508.508,0,0,0,.429-.519.519.519,0,0,0-.567-.518h-.911v1.638h.415V9.837h.16l.491.581h.508Zm-.712-.937h-.447V9.146h.453a.174.174,0,1,1,0,.346l-.006-.01Zm-1.047-.15a.519.519,0,0,0-.563-.553H15.2v1.638h.415V9.884H16.1a.54.54,0,0,0,.581-.553h0Zm-.418,0a.173.173,0,0,1-.194.181h-.458V9.146h.463a.173.173,0,0,1,.194.188l0,0Zm-1.108,1.084L14.5,9.588l.659-.81h-.508l-.386.5-.387-.5h-.518l.656.822-.655.818h.51l.386-.508.388.508Zm-3.175,0h1.341V10.05H12.4V9.772h.9V9.414h-.9V9.146h.921V8.778H11.985v1.638H11.98ZM21.7,7.554V5.916h-.413V6.93l-.654-1.014h-.518V7.554h.415V6.5l.675,1.054h.5Zm-2.107,0h.465L19.37,5.916h-.546l-.7,1.638h.46l.133-.332h.745l.137.336Zm-.282-.691H18.86l.229-.562Zm-1.341-.569h.44V5.916h-.471a.745.745,0,0,0-.794.807v.022a.728.728,0,0,0,.763.81h.032l.173-.37h-.13a.39.39,0,0,1-.414-.44V6.723a.387.387,0,0,1,.408-.429h-.007Zm-1.442,1.26h.419V5.916h-.419Zm-.065,0-.531-.6a.508.508,0,0,0,.429-.518.519.519,0,0,0-.567-.53h-.911v1.64H15.3V6.973h.16l.491.581Zm-.712-.937H15.3V6.282h.453a.174.174,0,1,1,0,.346v-.01Zm-2.434.937h1.336V7.186h-.926V6.908h.9V6.55h-.9V6.282h.92V5.916h-1.33V7.554Zm-.691,0h.411V5.916h-.657l-.366,1.045L11.65,5.916h-.66V7.554h.41V6.344l.431,1.21H12.2l.43-1.21v1.21Zm-2.15,0h.47l-.706-1.638H9.7L9,7.554h.461L9.6,7.222h.745l.136.336,0,0ZM10.2,6.863H9.74L9.968,6.3l.226.562h0Z"/></g><g transform="translate(74.333 1)"><rect class="a" width="32" height="16.667" rx="1" transform="translate(-0.333 -0.333)"/><g transform="translate(7.075 3)"><ellipse class="k" cx="5.054" cy="5" rx="5.054" ry="5" transform="translate(0)"/><ellipse class="l" cx="5.054" cy="5" rx="5.054" ry="5" transform="translate(7.075)"/><path class="m" d="M8.591,8.58A5.912,5.912,0,0,0,10.108,5,5.91,5.91,0,0,0,8.59,1.42,4.769,4.769,0,0,0,7.075,5,4.768,4.768,0,0,0,8.591,8.58Z"/></g></g><g transform="translate(37.667 1)"><rect class="a" width="32" height="16.667" rx="1" transform="translate(-0.333 -0.333)"/><g transform="translate(7.075 3)"><ellipse class="n" cx="5.054" cy="5" rx="5.054" ry="5" transform="translate(0)"/><ellipse class="o" cx="5.054" cy="5" rx="5.054" ry="5" transform="translate(7.075)"/><path class="p" d="M8.591,8.58A5.912,5.912,0,0,0,10.108,5,5.91,5.91,0,0,0,8.59,1.42,4.769,4.769,0,0,0,7.075,5,4.768,4.768,0,0,0,8.591,8.58Z"/></g></g><g transform="translate(1 1)"><rect class="a" width="32" height="16.667" rx="1" transform="translate(-0.333 -0.333)"/><path class="q" d="M11.936,11.58,13.1,4.427h1.863L13.8,11.58H11.935M20.556,4.6a4.649,4.649,0,0,0-1.67-.3c-1.841,0-3.138.97-3.148,2.36-.012,1.028.925,1.6,1.631,1.944.726.35.97.574.967.887,0,.48-.58.7-1.115.7a3.767,3.767,0,0,1-1.755-.375l-.24-.114-.26,1.6a5.661,5.661,0,0,0,2.076.382c1.957,0,3.229-.959,3.244-2.443.007-.815-.49-1.433-1.565-1.944-.651-.331-1.05-.551-1.046-.887,0-.3.338-.615,1.067-.615a3.3,3.3,0,0,1,1.394.275l.168.081.252-1.55m2.481,4.441c.154-.411.742-2,.742-2-.011.02.153-.414.247-.682l.126.617.431,2.065Zm2.3-4.61H23.9a.922.922,0,0,0-.976.593l-2.767,6.556h1.957s.32-.882.392-1.076l2.386,0c.055.25.226,1.072.226,1.072h1.73L25.335,4.435Zm-14.962,0L8.55,9.31l-.2-.992a5.507,5.507,0,0,0-2.58-3l1.668,6.256H9.413l2.934-7.14H10.373"/><path class="r" d="M6.857,4.428h-3l-.025.149A6.232,6.232,0,0,1,8.354,8.318L7.7,5.032a.782.782,0,0,0-.844-.6"/></g></g></svg>