<?xml version="1.0" standalone="no"?>
<!DOCTYPE svg PUBLIC "-//W3C//DTD SVG 1.1//EN" "http://www.w3.org/Graphics/SVG/1.1/DTD/svg11.dtd" >
<svg xmlns="http://www.w3.org/2000/svg">
<metadata>Generated by IcoMoon</metadata>
<defs>
<font id="icomoon" horiz-adv-x="1024">
<font-face units-per-em="1024" ascent="960" descent="-64" />
<missing-glyph horiz-adv-x="1024" />
<glyph unicode="&#x20;" horiz-adv-x="512" d="" />
<glyph unicode="&#x7e;" glyph-name="rupee-indian" d="M821.958 723.937h-147.478c-9.835 89.084-51.234 153.266-104.709 192.486h252.188c12.014 0 21.788 9.773 21.788 21.788s-9.776 21.788-21.79 21.788h-619.916c-12.015 0-21.788-9.775-21.788-21.788 0-12.015 9.773-21.788 21.788-21.788h263.517c70.408-13.011 150.59-71.591 165.407-192.486h-428.924c-12.015 0-21.788-9.775-21.788-21.79 0-12.014 9.773-21.788 21.788-21.788h431.725c-0.871-60.572-21.601-109.69-62.252-145.921-115.231-102.406-350.485-76.26-352.787-76.073-8.716 0.871-17.617-3.486-21.788-11.454-4.233-7.906-3.113-17.617 2.74-24.466l413.671-478.911c4.295-4.98 10.395-7.533 16.496-7.533 5.042 0 10.148 1.743 14.256 5.292 9.088 7.843 10.085 21.601 2.241 30.752l-379.745 439.631c81.925-2.118 238.927 5.79 333.801 90.142 50.363 44.76 76.073 104.959 76.945 178.542h144.615c12.014 0 21.788 9.775 21.788 21.788-0.001 12.015-9.712 21.79-21.79 21.79z" />
<glyph unicode="&#xe900;" glyph-name="checked" d="M11.815 408.615c-7.877 7.877-11.815 19.692-11.815 27.569s3.938 19.692 11.815 27.569l55.138 55.138c15.754 15.754 39.385 15.754 55.138 0l3.938-3.938 216.615-232.369c7.877-7.877 19.692-7.877 27.569 0l527.754 547.446h3.938c15.754 15.754 39.385 15.754 55.138 0l55.138-55.138c15.754-15.754 15.754-39.385 0-55.138v0l-630.154-653.785c-7.877-7.877-15.754-11.815-27.569-11.815s-19.692 3.938-27.569 11.815l-307.2 330.831-7.877 11.815z" />
<glyph unicode="&#xe901;" glyph-name="close" d="M908.459 708.523l-258.987-259.328 258.987-259.328c17.897-17.865 28.968-42.562 28.968-69.845 0-54.503-44.183-98.686-98.686-98.686-27.22 0-51.865 11.020-69.719 28.842l-259.071 259.412-259.072-259.413c-17.621-16.588-41.425-26.782-67.61-26.782-54.527 0-98.731 44.203-98.731 98.731 0 26.248 10.243 50.104 26.95 67.789l258.942 259.281-258.987 259.328c-19.178 18.053-31.121 43.606-31.121 71.949 0 54.527 44.203 98.731 98.731 98.731 28.279 0 53.781-11.889 71.781-30.942l259.116-259.375 259.072 259.328c18.044 19.1 43.546 30.989 71.825 30.989 54.527 0 98.731-44.203 98.731-98.731 0-28.343-11.943-53.896-31.071-71.902z" />
<glyph unicode="&#xe902;" glyph-name="full-screen" d="M415.005 394.584l-142.84-142.84 0.655 76.682c0 16.512-13.386 29.897-29.897 29.897s-29.897-13.386-29.897-29.897v-149.487c-0.003-0.155-0.005-0.338-0.005-0.521 0-8.163 3.655-15.472 9.418-20.38 5.442-5.564 12.977-8.996 21.313-8.996 0.004 0 0.007 0 0.011 0h148.647c16.512 0 29.897 13.386 29.897 29.897s-13.386 29.897-29.897 29.897h-78.613l143.478 143.478zM392.393 687.196c16.512 0 29.897 13.386 29.897 29.897s-13.386 29.897-29.897 29.897h-148.631c-8.337-0.013-15.871-3.441-21.281-8.959-5.806-4.944-9.461-12.254-9.461-20.417 0-0.183 0.002-0.366 0.006-0.549v-149.46c0-16.512 13.386-29.897 29.897-29.897s29.897 13.386 29.897 29.897l-0.655 76.716 142.84-142.84 42.269 42.202-143.36 143.511h78.563zM781.043 358.324c-16.508-0.010-29.888-13.389-29.897-29.896l0.655-76.717-142.84 142.84-42.253-42.236 143.478-143.444h-78.613c-16.512 0-29.897-13.386-29.897-29.897s13.386-29.897 29.897-29.897h148.648c8.345 0.007 15.884 3.45 21.279 8.991 5.806 4.925 9.463 12.218 9.463 20.364 0 0.191-0.002 0.381-0.006 0.57v149.425c-0.010 16.514-13.399 29.897-29.914 29.897 0 0 0 0 0 0zM780.221 746.974h-148.648c-16.512 0-29.897-13.386-29.897-29.897s13.386-29.897 29.897-29.897h78.512l-143.41-143.494 42.269-42.269 142.84 142.84-0.621-76.682c0-16.517 13.389-29.906 29.906-29.906s29.906 13.389 29.906 29.906v149.504c0.003 0.146 0.004 0.317 0.004 0.49 0 8.169-3.647 15.487-9.402 20.413-5.461 5.558-13.007 8.987-21.354 8.995zM870.753 926.426h-717.522c-0.020 0-0.044 0-0.067 0-66.048 0-119.59-53.542-119.59-119.59 0-0.024 0-0.047 0-0.071v-717.518c0.010-66.034 53.538-119.563 119.572-119.573h717.607c66.034 0.010 119.563 53.538 119.573 119.572v717.523c0 0.020 0 0.044 0 0.067 0 66.042-53.533 119.58-119.572 119.59zM930.547 89.331c0-0.010 0-0.022 0-0.034 0-33.005-26.756-59.761-59.761-59.761-0.012 0-0.024 0-0.035 0h-717.52c-0.010 0-0.022 0-0.034 0-33.005 0-59.761 26.756-59.761 59.761 0 0.012 0 0.024 0 0.035v717.436c0 33.024 26.771 59.795 59.795 59.795h717.522c0.005 0 0.011 0 0.017 0 33.015 0 59.778-26.764 59.778-59.778 0-0.006 0-0.012 0-0.018v-717.521z" />
<glyph unicode="&#xe903;" glyph-name="noti" d="M857.135 332.707v190.185c-0.644 154.745-106.345 284.624-249.438 322.043-4.732 41.862-38.849 74.48-80.584 74.48-0.208 0-0.415-0.001-0.622-0.002-0.862 0.038-1.91 0.059-2.964 0.059-40.516 0-73.624-31.72-75.844-71.682-145.342-39.242-250.594-169.763-250.703-324.885v-184.193c0-90.019-59.113-105.472-129.257-178.781h917.644c-70.144 73.356-128.233 82.758-128.233 172.777zM526.662-23.412c83.445 4.489 151.349 65.742 166.001 145.618l-332.308 1.093c14.819-80.969 82.723-142.222 165.718-146.692z" />
<glyph unicode="&#xe904;" glyph-name="more" d="M124.473 545.849c53.216-0.258 96.256-43.458 96.256-96.71 0-53.412-43.299-96.711-96.711-96.711s-96.71 43.298-96.711 96.71c0.129 53.44 43.481 96.712 96.938 96.712 0.080 0 0.16 0 0.24 0zM513.138 545.849c53.216-0.258 96.256-43.458 96.256-96.71 0-53.412-43.299-96.711-96.711-96.711s-96.71 43.298-96.711 96.71c0.129 53.44 43.481 96.712 96.938 96.712 0.080 0 0.16 0 0.24 0zM901.803 545.849c53.216-0.258 96.256-43.458 96.256-96.71 0-53.412-43.299-96.711-96.711-96.711s-96.71 43.298-96.711 96.71c0.129 53.44 43.481 96.712 96.938 96.712 0.080 0 0.16 0 0.24 0zM124.473 204.516c53.216-0.258 96.256-43.458 96.256-96.71 0-53.412-43.299-96.711-96.711-96.711s-96.71 43.298-96.711 96.71c0.129 53.44 43.481 96.712 96.938 96.712 0.080 0 0.16 0 0.24 0zM513.138 204.516c53.216-0.258 96.256-43.458 96.256-96.71 0-53.412-43.299-96.711-96.711-96.711s-96.71 43.298-96.711 96.71c0.129 53.44 43.481 96.712 96.938 96.712 0.080 0 0.16 0 0.24 0zM901.803 204.516c53.216-0.258 96.256-43.458 96.256-96.71 0-53.412-43.299-96.711-96.711-96.711s-96.71 43.298-96.711 96.71c0.129 53.44 43.481 96.712 96.938 96.712 0.080 0 0.16 0 0.24 0zM124.473 887.182c53.216-0.258 96.256-43.458 96.256-96.71 0-53.412-43.299-96.711-96.711-96.711s-96.71 43.298-96.711 96.71c0.129 53.44 43.481 96.712 96.938 96.712 0.080 0 0.16 0 0.24 0zM513.138 887.182c53.216-0.258 96.256-43.458 96.256-96.71 0-53.412-43.299-96.711-96.711-96.711s-96.71 43.298-96.711 96.71c0.129 53.44 43.481 96.712 96.938 96.712 0.080 0 0.16 0 0.24 0zM901.803 887.182c53.216-0.258 96.256-43.458 96.256-96.71 0-53.412-43.299-96.711-96.711-96.711s-96.71 43.298-96.711 96.71c0.129 53.44 43.481 96.712 96.938 96.712 0.080 0 0.16 0 0.24 0z" />
<glyph unicode="&#xe905;" glyph-name="search" d="M961.587 49.562l-208.947 208.998c51.646 62.663 82.965 143.76 82.965 232.171 0 202.322-164.014 366.336-366.336 366.336s-366.336-164.014-366.336-366.336c0-202.322 164.014-366.336 366.336-366.336 88.411 0 169.507 31.319 232.799 83.468l208.473-209.45c6.662-7.486 16.323-12.178 27.080-12.178 19.992 0 36.198 16.207 36.198 36.198 0 10.783-4.715 20.464-12.195 27.096zM468.941 197.427c-162.086 0.146-293.427 131.576-293.427 293.683 0 162.197 131.486 293.683 293.683 293.683s293.683-131.486 293.683-293.683c0-0.036 0-0.072 0-0.108-0.233-162.167-131.739-293.547-293.937-293.576z" />
<glyph unicode="&#xe906;" glyph-name="sales-orders" d="M1015.245 678.093c6.883-8.474 11.051-19.394 11.051-31.289 0-3.166-0.295-6.262-0.86-9.264l-42.908-243.249c-1.423-12.784-7.924-23.821-17.408-31.206-9.283-7.724-21.2-12.366-34.202-12.366-0.126 0-0.252 0-0.378 0.001h-626.157l-12.544-69.274h596.838c0.153 0.002 0.334 0.003 0.515 0.003 14.333 0 27.319-5.769 36.763-15.111 9.761-9.487 15.82-22.747 15.82-37.423s-6.059-27.935-15.812-37.415c-9.451-9.35-22.437-15.118-36.771-15.118-0.181 0-0.362 0.001-0.543 0.003h-659.992c-0.059 0-0.128 0-0.198 0-16.246 0-30.774 7.353-40.438 18.912-8.206 9.46-13.166 21.786-13.166 35.27 0 2.96 0.239 5.864 0.699 8.694l28.221 151.652-42.906 426.854-122.061 37.939c-13.689 3.926-24.733 13.181-30.948 25.319-3.968 7.585-6.22 16.24-6.22 25.42 0 5.417 0.784 10.652 2.245 15.596 4.057 13.339 13.656 24.308 26.123 30.204 7.606 3.884 16.241 6.086 25.391 6.086 5.358 0 10.539-0.755 15.443-2.164l155.561-49.055c9.992-2.993 18.362-8.86 24.392-16.633 6.215-7.848 10.448-17.358 11.924-27.756l8.637-85.198 707.738-78.234c15-1.577 27.877-9.521 36.042-21.040zM308.89 147.405c0.443 0.009 0.964 0.014 1.487 0.014 21.97 0 41.844-8.974 56.156-23.456 14.666-14.067 23.775-33.814 23.775-55.689 0-0.459-0.004-0.916-0.012-1.373 0.006-0.255 0.008-0.638 0.008-1.021 0-22.118-9.095-42.112-23.75-56.445-14.724-14.845-35.11-24.026-57.64-24.026s-42.916 9.181-57.62 24.007c-14.674 14.353-23.77 34.347-23.77 56.465 0 0.383 0.003 0.766 0.008 1.147-0.008 0.33-0.012 0.788-0.012 1.246 0 21.875 9.109 41.622 23.741 55.656 14.347 14.515 34.22 23.488 56.19 23.488 0.505 0 1.010-0.005 1.513-0.014zM791.45 147.405c0.443 0.009 0.964 0.014 1.487 0.014 21.97 0 41.844-8.974 56.156-23.456 14.666-14.067 23.775-33.814 23.775-55.689 0-0.459-0.004-0.916-0.012-1.373 0.006-0.249 0.008-0.624 0.008-0.999 0-22.125-9.095-42.125-23.75-56.467-14.724-14.845-35.109-24.026-57.64-24.026s-42.916 9.181-57.62 24.007c-14.674 14.353-23.77 34.347-23.77 56.465 0 0.383 0.003 0.766 0.008 1.147-0.008 0.33-0.012 0.788-0.012 1.246 0 21.875 9.109 41.622 23.741 55.656 14.347 14.515 34.221 23.489 56.191 23.489 0.523 0 1.045-0.005 1.565-0.015z" />
<glyph unicode="&#xe907;" glyph-name="marketplaces" d="M52.992 532.582c0.112-53.263 36.418-98.015 85.624-110.976l0.801-378.599h-57.498c-15.906 0-28.8-12.894-28.8-28.8s12.894-28.8 28.8-28.8h863.898c15.906 0 28.8 12.894 28.8 28.8s-12.894 28.8-28.8 28.8h-57.6v378.47c50.008 13.14 86.313 57.892 86.426 111.142v28.787h-921.6v-28.826zM628.992 417.382c0.015 0 0.033 0 0.051 0 63.595 0 115.149 51.554 115.149 115.149 0 0.018 0 0.036 0 0.054 0.112-53.266 36.418-98.018 85.624-110.979l0.801-378.599h-432.026v374.272c0.015 0 0.033 0 0.051 0 63.595 0 115.149 51.554 115.149 115.149 0 0.018 0 0.036 0 0.054 0.029-63.614 51.588-115.174 115.197-115.203zM369.818 421.427v-378.419h-172.8v378.47c49.969 13.155 86.244 57.875 86.374 111.089 0.137-53.227 36.435-97.954 85.624-110.91zM859.392 820.787h-691.2l-115.2-230.4h921.6zM168.192 878.080c0 0 0 0 0 0 0 15.902 12.876 28.796 28.772 28.826h633.654c0.362 0.016 0.787 0.026 1.215 0.026 15.92 0 28.826-12.906 28.826-28.826s-12.906-28.826-28.826-28.826c-0.427 0-0.852 0.009-1.275 0.028l-633.54-0.002c0 0 0 0 0 0-15.902 0-28.796 12.876-28.826 28.772z" />
<glyph unicode="&#xe908;" glyph-name="inventory" d="M238.95 556.698c-0.020 0-0.044 0-0.068 0-4.368 0-8.056-2.909-9.233-6.895l-195.499-477.969v-16.742c0-12.237-0.819-16.691 9.626-16.691h763.904c0.175-0.003 0.381-0.004 0.587-0.004 19.261 0 35.578 12.601 41.158 30.008l174.574 471.756v16.538h-785.050zM217.293 590.131h704.307v104.755c-0.23 25.274-20.772 45.674-46.078 45.674-0.199 0-0.397-0.001-0.595-0.004h-422.421l-85.299 117.043h-320.563c-0.168 0.002-0.366 0.003-0.565 0.003-25.306 0-45.848-20.4-46.078-45.652v-698.799l175.462 446.669c5.665 17.714 21.982 30.314 41.243 30.314 0.207 0 0.413-0.001 0.619-0.004z" />
<glyph unicode="&#xe909;" glyph-name="products-promotions" d="M596.48 439.91l-47.002-26.573v-477.338l423.322 238.592v477.389zM673.28 867.994l-163.021 92.006-435.2-245.146 163.021-92.16zM945.152 714.854l-187.392 104.294-435.2-245.146 24.883-12.544 162.816-91.802 161.946 90.982zM289.792 398.541l-77.978 39.219v121.344l-160.614 90.317v-473.958l420.301-236.902v473.958l-181.76 102.4v-116.224z" />
<glyph unicode="&#xe90a;" glyph-name="reports" d="M267.52 166.4c-9.279-10.26-15.219-23.696-16.019-38.498l-0.007-162.974h94.669v257.28c0 12.493-7.168 15.36-16.026 6.656zM683.366 320.666c-9.275-10.262-15.215-23.696-16.019-38.497l-0.007-317.241h94.669v411.392c0 12.493-7.168 15.36-16.026 6.656zM821.914 459.264c-9.294-10.257-15.251-23.691-16.070-38.494l-0.007-455.842h88.013v543.334c0 12.493-7.168 15.36-16.077 6.656zM547.533 185.139l-9.421-9.472c-5.913-8.473-9.449-18.989-9.449-30.329 0-0.606 0.010-1.209 0.030-1.809l-0.002-178.549h94.669v273.101c0 12.493-7.219 15.36-16.077 6.656zM406.17 232.96c-8.858 8.806-16.077 5.837-16.077-6.656v-261.53h94.669v167.322c-0.665 14.594-6.374 27.738-15.412 37.844l-15.308 15.301zM148.48 47.309l-30.72-30.72c-8.741-8.893-14.589-20.654-16.003-33.745l-0.022-18.172h105.728v119.091c0 12.493-7.168 15.36-16.026 6.605zM1008.128 512.41c8.755-8.858 15.872-5.837 15.872 6.656v323.584c-1.405 24.062-21.076 43.092-45.275 43.468h-322.136c-12.493 0-15.36-7.168-6.656-16.026l114.637-114.534-46.746-46.438-216.832-216.73-114.637 114.33c-4.103 4.097-9.769 6.631-16.026 6.631s-11.922-2.534-16.026-6.631l-318.925-318.515c-16.376-16.38-26.505-39.007-26.505-64s10.129-47.62 26.505-64l2.201-2.253c16.424-16.406 39.104-26.552 64.154-26.552s47.73 10.146 64.154 26.553l204.39 204.185 114.688-114.381c4.117-4.088 9.789-6.614 16.051-6.614s11.934 2.526 16.053 6.615l378.008 377.547z" />
<glyph unicode="&#xe90b;" glyph-name="setings" d="M113.323 336.27c10.052-34.085 22.846-63.683 38.687-91.31l-46.595-55.179c-6.306-7.926-10.117-18.082-10.117-29.128 0-12.917 5.212-24.616 13.647-33.111l78.22-78.106c8.456-8.473 20.146-13.715 33.061-13.715 11.054 0 21.211 3.84 29.21 10.259l56.797 44.928c26.639-15.648 57.424-29.018 89.862-38.519l11.457-73.893c2.773-23.442 22.519-41.454 46.476-41.472h110.48c23.959 0.018 43.705 18.030 46.457 41.251l8.156 70.763c37.786 10.002 70.854 23.738 101.491 41.242l53.076-44.598c7.924-6.317 18.082-10.136 29.133-10.136 12.919 0 24.619 5.22 33.106 13.665l78.163 78.163c8.477 8.465 13.721 20.165 13.721 33.091 0 11.064-3.842 21.23-10.265 29.238l-42.709 54.18c16.657 28.118 30.622 60.606 40.217 94.919l66.62 10.496c23.442 2.773 41.454 22.519 41.472 46.476v110.537c-0.045 23.949-18.042 43.68-41.249 46.457l-65.417 7.588c-9.855 36.767-23.272 68.916-40.314 98.725l40.883 48.56c6.306 7.926 10.117 18.082 10.117 29.128 0 12.917-5.212 24.616-13.647 33.111l-77.935 77.935c-8.446 8.368-20.073 13.539-32.908 13.539-10.993 0-21.1-3.793-29.083-10.142l-48.943-38.839c-29.244 17.502-63.031 32.061-98.766 41.928l-10.29 64.227c-2.774 23.454-22.54 41.472-46.513 41.472-0.068 0-0.135 0-0.203 0h-110.468c-23.959-0.018-43.705-18.030-46.457-41.251l-7.417-63.766c-39.587-10.778-74.233-25.848-106.052-45.118l-49.369 41.421c-7.918 6.302-18.065 10.111-29.101 10.111-12.906 0-24.596-5.21-33.081-13.641l-77.878-78.106c-8.477-8.465-13.721-20.165-13.721-33.091 0-11.064 3.842-21.23 10.265-29.238l42.311-53.782c-15.815-28.028-28.935-60.469-37.681-94.66l-68.872-10.584c-23.401-2.828-41.358-22.567-41.358-46.5 0-0.052 0-0.105 0-0.157v-110.527c0.018-23.959 18.030-43.705 41.251-46.457zM513.82 635.335c100.949 0 182.784-81.835 182.784-182.784s-81.835-182.784-182.784-182.784c-100.949 0-182.784 81.835-182.784 182.784 0 0.020 0 0.040 0 0.060 0.162 100.869 81.907 182.595 182.771 182.724z" />
<glyph unicode="&#xe90c;" glyph-name="left" d="M710.4 949.76c5.982 6.508 14.536 10.572 24.038 10.572s18.056-4.064 24.017-10.549c6.205-6.737 9.997-15.738 9.997-25.623s-3.791-18.886-9.999-25.627l-422.581-449.509 422.605-449.536c6.184-6.714 9.975-15.714 9.975-25.6s-3.791-18.886-9.999-25.627c-5.958-6.482-14.512-10.546-24.014-10.546s-18.056 4.064-24.017 10.549l-446.639 475.159c-6.184 6.714-9.975 15.714-9.975 25.6s3.791 18.886 9.999 25.627z" />
<glyph unicode="&#xe90d;" glyph-name="up" d="M173.943 348.467c-4.002-4.013-6.477-9.551-6.477-15.667s2.475-11.654 6.478-15.668c4.023-4.006 9.573-6.483 15.701-6.483s11.678 2.477 15.702 6.484l276.138 275.865 276.275-275.866c4.048-4.241 9.745-6.877 16.058-6.877 12.253 0 22.187 9.933 22.187 22.187 0 6.296-2.622 11.979-6.834 16.017l-291.984 291.574c-4.024 4.006-9.573 6.483-15.701 6.483s-11.678-2.477-15.702-6.484z" />
<glyph unicode="&#xe90e;" glyph-name="down" d="M141.312 625.493c-4.441 4.436-7.188 10.567-7.188 17.34s2.747 12.904 7.188 17.339c4.447 4.445 10.59 7.194 17.374 7.194s12.927-2.749 17.374-7.194l305.357-305.357 305.425 304.811c4.346 3.957 10.15 6.38 16.52 6.38 13.573 0 24.576-11.003 24.576-24.576 0-6.353-2.41-12.142-6.366-16.504l-322.746-322.198c-4.447-4.445-10.589-7.194-17.374-7.194s-12.927 2.749-17.374 7.194z" />
<glyph unicode="&#xe90f;" glyph-name="calendar" d="M384 400.384c-0.144 11.568-9.555 20.891-21.144 20.891-0.091 0-0.181-0.001-0.271-0.002h-74.482c-0.077 0.001-0.167 0.002-0.258 0.002-11.589 0-21-9.323-21.144-20.878v-72.974c0.115-11.591 9.538-20.942 21.145-20.942 0.090 0 0.181 0.001 0.271 0.002h74.636c0.031 0 0.067 0 0.104 0 11.588 0 21 9.322 21.144 20.876v73.025zM570.573 400.384c-0.144 11.568-9.555 20.891-21.144 20.891-0.073 0-0.145 0-0.217-0.001h-74.536c-0.077 0.001-0.167 0.002-0.258 0.002-11.589 0-21-9.323-21.144-20.878v-72.974c0.115-11.591 9.538-20.942 21.145-20.942 0.090 0 0.181 0.001 0.271 0.002h74.636c0.061-0.001 0.133-0.001 0.206-0.001 11.607 0 21.029 9.351 21.145 20.931v72.971zM757.146 400.384c-0.144 11.568-9.555 20.891-21.144 20.891-0.073 0-0.145 0-0.217-0.001h-74.536c-0.077 0.001-0.167 0.002-0.258 0.002-11.589 0-21-9.323-21.144-20.878v-72.974c0.115-11.591 9.538-20.942 21.145-20.942 0.090 0 0.181 0.001 0.271 0.002h74.636c0.061-0.001 0.133-0.001 0.206-0.001 11.607 0 21.029 9.351 21.145 20.931v72.971zM384 217.907c-0.144 11.568-9.555 20.891-21.144 20.891-0.091 0-0.181-0.001-0.271-0.002h-74.482c-0.077 0.001-0.167 0.002-0.258 0.002-11.589 0-21-9.323-21.144-20.878v-72.974c0.144-11.568 9.555-20.891 21.144-20.891 0.091 0 0.181 0.001 0.271 0.002h74.636c0.031 0 0.067 0 0.104 0 11.588 0 21 9.322 21.144 20.876v72.974zM570.573 217.907c-0.144 11.568-9.555 20.891-21.144 20.891-0.073 0-0.145 0-0.217-0.001h-74.536c-0.077 0.001-0.167 0.002-0.258 0.002-11.589 0-21-9.323-21.144-20.878v-72.974c0.144-11.568 9.555-20.891 21.144-20.891 0.091 0 0.181 0.001 0.271 0.002h74.636c0.061-0.001 0.134-0.001 0.206-0.001 11.589 0 21 9.322 21.144 20.877v72.974zM757.146 217.907c-0.144 11.568-9.555 20.891-21.144 20.891-0.073 0-0.145 0-0.217-0.001h-74.536c-0.077 0.001-0.167 0.002-0.258 0.002-11.589 0-21-9.323-21.144-20.878v-72.974c0.144-11.568 9.555-20.891 21.144-20.891 0.091 0 0.181 0.001 0.271 0.002h74.636c0.061-0.001 0.134-0.001 0.206-0.001 11.589 0 21 9.322 21.144 20.877v72.974zM890.88 806.4v-111.667c-0.66-50.393-41.665-90.99-92.153-90.99-0.417 0-0.833 0.003-1.248 0.008l-58.817-0.001c-0.385-0.006-0.839-0.009-1.294-0.009-50.58 0-91.691 40.544-92.605 90.906l-0.001 111.753h-265.421v-111.667c-0.859-50.464-41.969-91.043-92.557-91.043-0.473 0-0.944 0.004-1.415 0.011l-58.809-0.001c-0.383-0.006-0.834-0.009-1.287-0.009-50.506 0-91.522 40.627-92.153 90.983l-0.001 111.727c-45.090-1.075-81.307-37.578-81.919-82.681l-0.001-653.371c0.462-46.021 37.877-83.15 83.964-83.15 0.181 0 0.363 0.001 0.544 0.002h752.612c0.123-0.001 0.269-0.001 0.415-0.001 46.089 0 83.516 37.088 84.064 83.047v653.415c-0.614 45.161-36.83 81.664-81.82 82.737zM863.437 111.002c-0.173-19.832-16.29-35.842-36.146-35.842-0.126 0-0.253 0.001-0.379 0.002h-631.43c-0.107-0.001-0.233-0.002-0.36-0.002-19.856 0-35.973 16.010-36.146 35.825v337.476c0.173 19.832 16.29 35.842 36.146 35.842 0.126 0 0.253-0.001 0.379-0.002h631.379c0.107 0.001 0.233 0.002 0.36 0.002 19.856 0 35.973-16.010 36.146-35.825v-337.476zM226.355 663.501h58.214c0.107-0.001 0.234-0.002 0.36-0.002 17.35 0 31.438 13.964 31.639 31.266v182.752c-0.201 17.321-14.29 31.285-31.64 31.285-0.127 0-0.253-0.001-0.38-0.002h-58.195c-0.107 0.001-0.234 0.002-0.36 0.002-17.35 0-31.438-13.964-31.639-31.266v-182.752c0.201-17.321 14.29-31.285 31.64-31.285 0.127 0 0.253 0.001 0.38 0.002zM737.843 663.501h58.214c0.107-0.001 0.234-0.002 0.36-0.002 17.35 0 31.438 13.964 31.639 31.266v182.752c-0.201 17.321-14.29 31.285-31.64 31.285-0.127 0-0.253-0.001-0.38-0.002h-58.195c-0.107 0.001-0.234 0.002-0.36 0.002-17.35 0-31.438-13.964-31.639-31.266v-182.752c0.201-17.321 14.29-31.285 31.64-31.285 0.127 0 0.253 0.001 0.38 0.002z" />
<glyph unicode="&#xe910;" glyph-name="clint" horiz-adv-x="1877" d="M625.749 566.187h-234.667v236.288h-156.416v-236.288h-234.667v-157.525h234.667v-236.373h156.416v236.373h234.667v157.525zM1408 487.424c1.032-0.017 2.249-0.026 3.469-0.026 127.718 0 231.253 103.536 231.253 231.253 0 1.78-0.020 3.554-0.060 5.324 0.040 1.243 0.060 3.018 0.060 4.797 0 127.718-103.536 231.253-231.253 231.253-1.22 0-2.437-0.009-3.652-0.028-23.283 0.002-46.75-7.848-70.216-7.848 44.063-62.736 70.417-140.695 70.417-224.81 0-1.275-0.006-2.549-0.018-3.821 0.012-0.884 0.018-2.158 0.018-3.433 0-84.115-26.354-162.074-71.255-226.071 24.305 1.261 47.772-6.589 71.239-6.589zM1016.917 487.424c1.006-0.016 2.193-0.025 3.381-0.025 127.765 0 231.339 103.574 231.339 231.339 0 1.749-0.019 3.493-0.058 5.233 0.005 129.344-105.059 234.408-234.662 234.408s-234.667-105.064-234.667-234.667c-0.035-1.507-0.055-3.281-0.055-5.061 0-127.718 103.536-231.253 231.253-231.253 1.22 0 2.437 0.009 3.652 0.028zM1533.184 314.112c64.18-53.207 105.795-131.695 109.463-219.983l0.020-158.129h234.667v157.525c0 118.187-187.733 196.949-344.149 220.587zM1016.917 329.899c-156.416 0-469.333-78.763-469.333-236.288v-157.611h938.667v157.525c0 157.525-312.917 236.288-469.333 236.288z" />
<glyph unicode="&#xe911;" glyph-name="sales" horiz-adv-x="1792" d="M1750.011 959.792h-4.691q-152.258-7.165-304.431-14.757c-1.724 0.274-3.711 0.43-5.736 0.43-15 0-27.995-8.585-34.339-21.108-1.97-4.208-3.061-8.88-3.061-13.808 0-11.509 5.952-21.628 14.945-27.448 31.432-31.894 61.884-63.796 93.957-95.185l-315.52-320.126-24.822-25.59-302.981-307.758-14.074 14.33-367.809 373.608c-12.021 12.27-28.741 19.896-47.244 19.96-0.053 0-0.101 0-0.149 0-18.483 0-35.18-7.644-47.102-19.943l-16.393-17.077-350.493-356.548c-12.213-12.326-19.759-29.293-19.759-48.024s7.546-35.698 19.764-48.029l17.055-17.054c12.021-12.27 28.741-19.896 47.244-19.96 0.042 0 0.078 0 0.113 0 18.493 0 35.202 7.644 47.139 19.944l302.826 308.030 13.989-14.245 367.296-373.182c12.021-12.27 28.741-19.896 47.244-19.96 0.042 0 0.078 0 0.113 0 18.493 0 35.202 7.644 47.139 19.944l17.075 17.076 689.469 701.667 91.696-92.294c6.726-9.495 16.946-16.133 28.749-18.050 5.773 0.192 10.885 1.746 15.338 4.315 13.791 8.071 23.014 22.976 23.014 40.035 0 1.611-0.082 3.205-0.243 4.774 4.196 100.626 9.399 200.937 14.090 301.761 0.866 2.9 1.363 6.232 1.363 9.681 0 19.362-15.696 35.058-35.058 35.058-2.018 0-3.995-0.171-5.921-0.498z" />
<glyph unicode="&#xe912;" glyph-name="invoice" d="M898.475 706.987l-208.555 208.213c-23.418 22.494-53.664 38.042-87.328 43.234l-0.907-339.768h340.309c-5.34 34.619-20.948 64.896-43.568 88.37zM580.267 533.333c-0.102-0.001-0.222-0.001-0.342-0.001-35.252 0-63.829 28.577-63.829 63.829 0 0.090 0 0.181 0.001 0.271v363.165h-363.691c-0.336 0.007-0.733 0.010-1.13 0.010-17.381 0-33.090-7.158-44.341-18.686-11.552-11.236-18.711-26.91-18.711-44.258 0-0.405 0.004-0.809 0.012-1.213l-0.001-896.964c0-0.076-0.001-0.167-0.001-0.257 0-35.252 28.577-63.829 63.829-63.829 0.12 0 0.24 0 0.36 0.001h727.363c0.102-0.001 0.222-0.001 0.342-0.001 35.252 0 63.829 28.577 63.829 63.829 0 0.090 0 0.181-0.001 0.271v533.831h-363.691z" />
<glyph unicode="&#xe913;" glyph-name="visitors" horiz-adv-x="1707" d="M854.101 458.752h2.816c224 2.475 191.488 302.763 191.488 302.763 0.327 4.12 0.513 8.921 0.513 13.765 0 102.127-82.79 184.917-184.917 184.917-3.002 0-5.987-0.072-8.953-0.213-2.047 0.134-4.938 0.201-7.845 0.201-102.221 0-185.088-82.867-185.088-185.088 0-4.78 0.181-9.517 0.537-14.205s-32.55-300.091 191.45-302.139zM1378.304 356.352h2.048c179.968 1.792 154.112 243.456 154.112 243.456 0.054 1.534 0.085 3.337 0.085 5.146 0 85.726-69.495 155.221-155.221 155.221s-155.221-69.495-155.221-155.221c0-1.81 0.031-3.612 0.092-5.407s-26.29-241.488 154.020-243.28zM1708.544 111.445c0.31 3.316 0.486 7.171 0.486 11.068 0 47.165-25.872 88.287-64.198 109.949-70.944 44.871-149.536 82.759-149.536 82.759l-62.549-198.571-36.352 104.192c63.915 89.771-4.523 94.379-17.067 94.379h-0.427c-12.203 0-80.725-4.608-17.067-94.379l-36.011-103.851-62.891 198.571s-22.357-10.837-53.845-27.733c-7.192 5.947-15.183 11.739-23.533 17.014-88.339 55.605-185.789 102.965-185.789 102.965l-77.568-246.613-45.056 129.877c79.701 111.531-5.632 117.163-20.992 117.504h-0.683c-15.36 0-100.608-5.632-20.992-117.504l-45.397-129.451-77.568 246.613s-97.536-47.701-184.832-102.4c-9.454-6.023-17.553-11.924-25.272-18.271-31.389 17.418-54.088 28.426-54.088 28.426l-62.549-198.997-36.352 103.851c63.915 89.771-4.523 94.379-17.067 94.379h-0.427c-12.203 0-80.725-4.608-17.067-94.379l-36.011-103.851-62.549 198.571s-78.763-38.229-148.907-82.432c-38.915-21.847-64.779-62.852-64.779-109.898 0-4.030 0.19-8.016 0.561-11.949l-0.038-175.284h1706.667zM329.216 356.267h2.048c180.736 1.792 154.112 243.456 154.112 243.456 0.246 3.208 0.386 6.948 0.386 10.721 0 82.333-66.744 149.077-149.077 149.077-2.267 0-4.521-0.051-6.763-0.151-1.685 0.108-4.034 0.163-6.396 0.163-82.192 0-148.821-66.63-148.821-148.821 0-3.837 0.145-7.64 0.43-11.404s-25.886-241.249 154.082-243.041z" />
<glyph unicode="&#xe914;" glyph-name="google-plus" d="M359.274 380.414h159.984c-28.082-79.396-104.139-136.32-193.182-135.663-108.041 0.798-197.376 87.228-201.571 195.191-4.496 115.728 88.35 211.311 203.097 211.311 52.466 0 100.345-19.991 136.441-52.748 8.55-7.761 21.564-7.81 29.973 0.105l58.761 55.304c9.189 8.65 9.222 23.258 0.060 31.937-57.244 54.232-134.034 88.035-218.714 89.688-180.614 3.526-332.856-144.559-334.114-325.205-1.269-182.002 145.886-329.938 327.593-329.938 174.744 0 317.495 136.823 327.057 309.176 0.255 2.161 0.422 75.19 0.422 75.19h-295.808c-12.125 0-21.953-9.828-21.953-21.953v-80.444c0-12.125 9.83-21.953 21.953-21.953zM926.164 497.459v78.598c0 10.626-8.612 19.238-19.238 19.238h-66.153c-10.626 0-19.238-8.612-19.238-19.238v-78.598h-78.598c-10.626 0-19.238-8.612-19.238-19.238v-66.153c0-10.626 8.612-19.238 19.238-19.238h78.598v-78.598c0-10.626 8.612-19.238 19.238-19.238h66.153c10.626 0 19.238 8.612 19.238 19.238v78.598h78.598c10.626 0 19.238 8.612 19.238 19.238v66.153c0 10.626-8.612 19.238-19.238 19.238h-78.598z" />
<glyph unicode="&#xe915;" glyph-name="small-screen" d="M237.909 127.244l152.869 152.869-0.683-82.066c0-17.666 14.321-31.988 31.988-31.988s31.988 14.321 31.988 31.988v159.988c0.001 0.107 0.002 0.233 0.002 0.359 0 8.835-4.003 16.735-10.294 21.986-5.81 6.015-13.874 9.742-22.809 9.789h-158.875c-17.666 0-31.988-14.321-31.988-31.988s14.321-31.988 31.988-31.988h84.114l-153.551-153.698zM262.095 569.905c-17.666 0-31.988-14.321-31.988-31.988s14.321-31.988 31.988-31.988h159.061c8.942 0.059 17.002 3.783 22.763 9.743 6.204 5.292 10.108 13.105 10.108 21.83 0 0.197-0.002 0.394-0.006 0.59v159.812c-0.69 17.121-14.736 30.739-31.963 30.739s-31.274-13.618-31.961-30.677l0.681-82.129-152.869 152.82-45.251-45.251 153.551-153.502h-84.114zM601.966 166.059c17.634 0.055 31.911 14.35 31.939 31.985l-0.683 82.118 152.869-152.869 45.251 45.251-153.551 153.551h84.114c17.666 0 31.988 14.321 31.988 31.988s-14.321 31.988-31.988 31.988h-159.061c-8.944-0.047-17.008-3.774-22.763-9.743-6.205-5.276-10.109-13.075-10.109-21.786 0-0.213 0.002-0.425 0.007-0.637l-0.001-159.956c0.083-17.613 14.367-31.863 31.985-31.89zM602.843 505.929h159.11c17.666 0 31.988 14.321 31.988 31.988s-14.321 31.988-31.988 31.988h-84.163l153.6 153.551-45.251 45.251-152.82-152.869 0.585 82.066c0 17.666-14.321 31.988-31.988 31.988s-31.988-14.321-31.988-31.988v-159.988c-0.003-0.147-0.004-0.321-0.004-0.494 0-8.745 3.902-16.578 10.059-21.855 5.842-5.955 13.921-9.629 22.858-9.639zM895.902 960h-767.854c-0.015 0-0.032 0-0.049 0-70.692 0-128-57.308-128-128 0-0.017 0-0.034 0-0.052v-767.851c0-0.029 0-0.063 0-0.098 0-70.692 57.308-128 128-128 0.017 0 0.034 0 0.051 0h767.851c0.029 0 0.063 0 0.098 0 70.692 0 128 57.308 128 128 0 0.034 0 0.068 0 0.103v767.849c0 0.015 0 0.032 0 0.049 0 70.692-57.308 128-128 128-0.034 0-0.069 0-0.103 0zM959.878 64.146c0-35.333-28.643-63.976-63.976-63.976h-767.854c-35.333 0-63.976 28.643-63.976 63.976v767.805c0 35.333 28.643 63.976 63.976 63.976h767.854c35.333 0 63.976-28.643 63.976-63.976v-767.854z" />
<glyph unicode="&#xe916;" glyph-name="addsvg" d="M563.2 652.8h-102.4v-153.6h-153.6v-102.4h153.6v-153.6h102.4v153.6h153.6v102.4h-153.6v153.6zM512 960c-281.6 0-512-230.4-512-512s230.4-512 512-512 512 230.4 512 512-230.4 512-512 512zM512 38.4c-225.28 0-409.6 184.32-409.6 409.6s184.32 409.6 409.6 409.6 409.6-184.32 409.6-409.6-184.32-409.6-409.6-409.6z" />
<glyph unicode="&#xe917;" glyph-name="minus" d="M512 960c-281.6 0-512-230.4-512-512s230.4-512 512-512 512 230.4 512 512-230.4 512-512 512zM512 38.4c-225.28 0-409.6 184.32-409.6 409.6s184.32 409.6 409.6 409.6 409.6-184.32 409.6-409.6-184.32-409.6-409.6-409.6zM307.2 396.8h409.6v102.4h-409.6v-102.4z" />
<glyph unicode="&#xe918;" glyph-name="close-big" horiz-adv-x="960" d="M946.624 164.544c0.005 0.301 0.007 0.657 0.007 1.013 0 20.474-8.485 38.965-22.13 52.151l-230.357 230.292 230.4 230.4c13.688 13.563 22.163 32.368 22.163 53.152s-8.475 39.589-22.158 53.146l-106.374 106.182c-13.563 13.688-32.368 22.163-53.152 22.163s-39.589-8.475-53.146-22.158l-230.406-230.406-230.4 230.4c-13.571 13.673-32.373 22.136-53.152 22.136s-39.581-8.464-53.147-22.132l-106.373-106.309c-13.65-13.557-22.099-32.336-22.099-53.088s8.449-39.531 22.095-53.084l230.404-230.404-230.4-230.4c-13.688-13.563-22.163-32.368-22.163-53.152s8.475-39.589 22.158-53.146l106.566-106.182c13.563-13.688 32.368-22.163 53.152-22.163s39.589 8.475 53.146 22.158l230.406 230.406 230.4-230.4c13.56-13.669 32.352-22.131 53.12-22.131s39.56 8.462 53.115 22.126l106.309 106.309c13.59 13.185 22.024 31.618 22.024 52.021 0 0.386-0.003 0.772-0.009 1.157z" />
<glyph unicode="&#xe919;" glyph-name="lock" horiz-adv-x="768" d="M86.656 652.352v-106.88h-6.976c-43.926-0.611-79.3-36.363-79.3-80.377 0-0.273 0.001-0.545 0.004-0.817v-446.998c-0.004-0.287-0.006-0.627-0.006-0.966 0-44.002 35.382-79.739 79.248-80.313l609.91-0.001c43.947 0.54 79.364 36.291 79.364 80.314 0 0.295-0.002 0.589-0.005 0.883v447.315c0.003 0.249 0.004 0.543 0.004 0.838 0 44.024-35.418 79.775-79.313 80.314h-2.099v107.136c0.009 0.882 0.014 1.925 0.014 2.968 0 166.691-134.048 302.073-300.227 304.23-166.624-2.335-300.635-137.79-300.635-304.546 0-1.090 0.006-2.179 0.017-3.266zM431.68 220.992c-4.747-3.174-7.832-8.513-7.832-14.572 0-0.616 0.032-1.224 0.094-1.823-0.006-32.757-0.006-65.397-0.006-98.229v0c0.047-0.682 0.074-1.478 0.074-2.28 0-13.145-7.206-24.608-17.883-30.653-5.509-3.183-11.91-5.007-18.738-5.007-20.713 0-37.504 16.791-37.504 37.504 0 0.153 0.001 0.306 0.003 0.459v-0.023c0 32.832 0 65.664 0 98.56 0.050 0.485 0.078 1.049 0.078 1.619 0 5.72-2.842 10.776-7.192 13.833-18.837 14.015-30.873 36.152-30.873 61.099 0 11.29 2.465 22.004 6.885 31.633 11.471 26.357 37.745 44.778 68.321 44.778 4.487 0 8.882-0.397 13.151-1.157 34.881-6.735 61.222-37.365 61.31-74.164 0.027-0.751 0.042-1.622 0.042-2.496 0-24.143-11.696-45.554-29.731-58.877zM218.176 652.352c-0.006 0.518-0.009 1.129-0.009 1.742 0 93.718 75.361 169.835 168.789 171.057 93.687-1.186 169.084-77.317 169.084-171.058 0-0.612-0.003-1.224-0.010-1.834l0.001-106.787h-337.856v106.88z" />
<glyph unicode="&#xe91a;" glyph-name="unlock" horiz-adv-x="768" d="M366.976 768.704c6.146 0.791 13.255 1.242 20.47 1.242 74.87 0 138.391-48.587 160.754-115.95 10.124-27.191 34.412-45.518 63.089-46.378l0.103-0.002c0.439-0.011 0.957-0.017 1.476-0.017 35.346 0 64 28.654 64 64 0 6.228-0.89 12.249-2.549 17.941-40.22 120.556-152.457 206.253-284.71 206.253-4.224 0-8.427-0.087-12.608-0.26-160.003-3.526-289.085-133.548-291.112-294.186l-0.002-94.018h-7.168c-0.5 0.012-1.089 0.018-1.68 0.018-42.283 0-76.665-33.832-77.55-75.904l-0.001-419.347c0.816-42.21 35.226-76.114 77.554-76.114 0.59 0 1.178 0.007 1.765 0.020l610.025-0.002c0.48-0.011 1.046-0.017 1.614-0.017 42.328 0 76.737 33.904 77.553 76.037l0.001 419.532c-0.888 42.153-35.269 75.985-77.552 75.985-0.568 0-1.135-0.006-1.701-0.018l-471.148 0.001v95.488c0.428 85.78 65.274 156.282 148.615 165.627zM442.496 107.52c0.159-0.81 0.251-1.741 0.251-2.693 0-8.059-6.533-14.592-14.592-14.592-0.133 0-0.266 0.002-0.398 0.005h-89.004c-0.113-0.003-0.245-0.005-0.379-0.005-8.059 0-14.592 6.533-14.592 14.592 0 0.952 0.091 1.883 0.265 2.785l17.009 80.228c-14.301 11.46-23.38 28.925-23.38 48.51 0 3.618 0.31 7.163 0.904 10.611 6.442 29.938 33 52.33 64.788 52.33 35.49 0 64.46-27.91 66.161-62.978-0.108-20-9.498-37.631-24.046-48.943z" />
<glyph unicode="&#xe91b;" glyph-name="refresh" horiz-adv-x="896" d="M78.336 523.776c0.079 0 0.172 0 0.265 0 30.598 0 56.895 18.416 68.412 44.768 49.801 114.703 161.629 193.136 291.776 193.136 72.825 0 139.913-24.557 193.437-65.843l-42.467-5.852c-15.807-2.116-27.87-15.515-27.87-31.732 0-13.153 7.935-24.452 19.279-29.372l229.711-102.48c3.923-1.785 8.509-2.825 13.337-2.825 6.546 0 12.645 1.912 17.769 5.207 8.882 5.65 14.79 15.562 14.845 26.857l1.216 250.184c0.001 0.076 0.001 0.166 0.001 0.256 0 14.481-9.618 26.715-22.815 30.662-3.094 0.968-6.392 1.492-9.812 1.492-11.171 0-21.036-5.59-26.951-14.125l-31.687-47.149c-84.425 82.258-199.912 132.992-327.248 132.992-191.703 0-356.548-114.987-429.329-279.751-5.026-11.644-7.264-21.729-7.264-32.336 0-15.312 4.663-29.534 12.647-41.324 13.616-19.788 36.424-32.766 62.264-32.766 0.169 0 0.339 0.001 0.508 0.002zM862.912 338.816c-13.745 20.229-36.646 33.344-62.611 33.344-0.038 0-0.076 0-0.114 0-0.035 0-0.083 0-0.131 0-30.598 0-56.895-18.416-68.412-44.768-49.801-114.703-161.629-193.136-291.776-193.136-72.825 0-139.913 24.557-193.437 65.843l42.467 5.852c15.807 2.116 27.87 15.515 27.87 31.732 0 13.153-7.935 24.452-19.279 29.372l-229.711 102.48c-3.923 1.779-8.506 2.817-13.332 2.817-6.546 0-12.647-1.908-17.776-5.199-8.856-5.663-14.74-15.573-14.781-26.859l-1.28-250.31c-0.001-0.076-0.001-0.166-0.001-0.256 0-14.481 9.618-26.715 22.815-30.662 3.094-0.968 6.392-1.492 9.812-1.492 11.171 0 21.036 5.59 26.951 14.125l31.687 47.149c84.409-82.172 199.836-132.847 327.1-132.847 191.721 0 356.58 115.008 429.35 279.798 4.947 11.561 7.139 21.541 7.139 32.032 0 15.307-4.665 29.524-12.65 41.308z" />
<glyph unicode="&#xe91c;" glyph-name="filter" d="M1018.959 930.304c-6.305 16.681-22.143 28.328-40.7 28.328-0.729 0-1.453-0.018-2.173-0.053l-928.273 0.004c-0.642 0.034-1.393 0.053-2.149 0.053-18.559 0-34.397-11.648-40.602-28.033-2.952-5.81-4.625-12.331-4.625-19.242 0-12.728 5.674-24.13 14.631-31.816l357.668-357.581v-352.492c-0.001-0.124-0.002-0.271-0.002-0.418 0-12.68 5.284-24.126 13.77-32.256l185.675-185.674c7.906-8.497 19.151-13.796 31.633-13.796 0.344 0 0.686 0.004 1.028 0.012 6.496 0.088 12.71 1.41 18.402 3.744 16.345 6.184 27.992 22.021 27.992 40.578 0 0.729-0.018 1.453-0.053 2.173l0.004 538.129 357.534 357.534c9.056 7.72 14.762 19.139 14.762 31.89 0 6.901-1.671 13.412-4.632 19.15z" />
<glyph unicode="&#xe91d;" glyph-name="check-box" d="M0 960v-1024h1024v1024h-1024zM78.769 881.231h866.462v-866.462h-866.462v866.462zM228.431 419.801c-4.664 4.697-7.547 11.169-7.547 18.314s2.883 13.617 7.549 18.315l35.208 36.626c4.345 4.838 10.621 7.868 17.605 7.868s13.26-3.029 17.586-7.846l2.619-2.621 138.319-154.309c2.174-2.432 5.32-3.956 8.822-3.956s6.648 1.524 8.812 3.944l336.985 363.531h2.521c4.345 4.838 10.621 7.868 17.605 7.868s13.26-3.029 17.586-7.846l35.229-36.65c4.664-4.697 7.547-11.169 7.547-18.314s-2.883-13.617-7.549-18.315l0.002 0.002-402.59-434.097c-4.345-4.838-10.621-7.868-17.605-7.868s-13.26 3.029-17.586 7.846l-195.997 219.709z" />
<glyph unicode="&#xe91e;" glyph-name="delete-box" d="M0 960v-1024h1024v1024h-1024zM78.769 881.231h866.462v-866.462h-866.462v866.462zM596.204 415.311c-2.39 2.285-3.875 5.498-3.875 9.058s1.486 6.774 3.871 9.054l194.171 194.171c4.78 4.57 7.751 10.996 7.751 18.117s-2.971 13.547-7.741 18.108l-36.243 36.243c-4.71 4.581-11.039 7.519-18.050 7.874-0.215 0.006-0.39 0.008-0.566 0.008-6.99 0-13.272-3.035-17.598-7.86l-194.264-194.188c-2.285-2.39-5.498-3.875-9.058-3.875s-6.774 1.486-9.054 3.871l-194.171 194.171c-4.57 4.78-10.996 7.751-18.117 7.751s-13.547-2.971-18.108-7.741l-36.243-36.243c-4.78-4.57-7.751-10.996-7.751-18.117s2.971-13.547 7.741-18.108l194.333-194.175c2.39-2.285 3.875-5.498 3.875-9.058s-1.486-6.774-3.871-9.054l-194.328-194.249c-4.78-4.57-7.751-10.996-7.751-18.117s2.971-13.547 7.741-18.108l36.243-36.243c4.57-4.78 10.996-7.751 18.117-7.751s13.547 2.971 18.108 7.741l194.175 194.176c2.285 2.39 5.498 3.875 9.058 3.875s6.774-1.486 9.054-3.871l194.249-194.092c4.57-4.78 10.996-7.751 18.117-7.751s13.547 2.971 18.108 7.741l36.243 36.243c4.78 4.57 7.751 10.996 7.751 18.117s-2.971 13.547-7.741 18.108z" />
<glyph unicode="&#xe91f;" glyph-name="search-box" d="M0 960v-1024h1024v1024h-1024zM78.769 881.231h866.462v-866.462h-866.462v866.462zM777.531 233.039l-122.25 122.25c-2.407 1.965-3.932 4.933-3.932 8.256 0 2.109 0.614 4.075 1.673 5.728 24.137 37.067 38.507 82.477 38.507 131.244 0 0.922-0.005 1.842-0.015 2.761-0.402 137.068-111.723 248.14-248.987 248.14-137.513 0-248.99-111.476-248.99-248.99 0-137.485 111.431-248.944 248.905-248.99 0.784-0.009 1.704-0.014 2.626-0.014 48.766 0 94.177 14.37 132.227 39.106 0.618 0.436 2.524 1.036 4.571 1.036 3.249 0 6.145-1.513 8.021-3.873l122.266-122.271c3.988-4.126 9.572-6.688 15.754-6.688s11.766 2.562 15.748 6.682l31.514 31.514c5.441 4.217 8.909 10.754 8.909 18.101 0 6.236-2.498 11.888-6.549 16.010zM444.731 344.025c-87.528 0-158.484 70.956-158.484 158.484s70.956 158.484 158.484 158.484c87.528 0 158.484-70.956 158.484-158.484 0-0.028 0-0.055 0-0.083 0.002-0.254 0.002-0.559 0.002-0.865 0-87.006-70.532-157.538-157.538-157.538-0.333 0-0.666 0.001-0.999 0.003z" />
<glyph unicode="&#xe920;" glyph-name="edit-box" d="M0 960v-1024h1024v1024h-1024zM78.769 881.231h866.462v-866.462h-866.462v866.462zM606.996 677.612l124.455-125.322-315.077-317.125-124.455 125.243zM825.974 707.86l-55.138 55.847c-9.97 9.932-23.724 16.073-38.912 16.073s-28.942-6.141-38.914-16.075l-53.167-53.483 124.219-125.322 62.070 62.464c7.681 7.754 12.426 18.426 12.426 30.208 0 11.86-4.809 22.596-12.584 30.366zM226.777 184.359c-0.226-0.949-0.356-2.038-0.356-3.158 0-7.831 6.348-14.178 14.178-14.178 1.189 0 2.344 0.146 3.447 0.422l138.615 33.85-124.455 125.243z" />
<glyph unicode="&#xe921;" glyph-name="right" d="M320.695-2.878c-6.35-6.35-14.288-9.526-23.020-9.526s-16.67 3.175-23.020 9.526c-12.701 12.701-12.701 33.34 0 46.040l404.837 404.837-404.837 404.837c-12.701 12.701-12.701 33.34 0 46.040s33.34 12.701 46.040 0l427.857-427.857c12.701-12.701 12.701-33.34 0-46.040l-427.857-427.857z" />
<glyph unicode="&#xe922;" glyph-name="add" d="M0 504.889h1024v-113.778h-1024v113.778zM455.111 960h113.778v-1024h-113.778v1024z" />
<glyph unicode="&#xe924;" glyph-name="rupee-indian1" d="M831.991 728.004c-4.358 4.363-9.937 6.541-16.718 6.541h-124.358c-8.248 40.229-23.764 75.15-46.549 104.724h169.445c6.799 0 12.362 2.18 16.736 6.534 4.341 4.361 6.521 9.942 6.521 16.728v74.197c0 6.791-2.178 12.362-6.521 16.728-4.379 4.356-9.942 6.544-16.741 6.544h-605.080c-6.791 0-12.362-2.188-16.728-6.541-4.353-4.366-6.541-9.937-6.541-16.728v-96.725c0-6.302 2.303-11.756 6.908-16.361s10.059-6.908 16.361-6.908h105.455c102.296 0 167.267-27.386 194.9-82.178h-300.354c-6.791 0-12.37-2.178-16.728-6.541-4.353-4.369-6.541-9.937-6.541-16.728v-74.187c0-6.786 2.178-12.364 6.541-16.718 4.366-4.369 9.947-6.541 16.728-6.541h310.551c-10.668-39.768-35.519-70.065-74.554-90.915-39.037-20.852-90.54-31.278-154.543-31.278h-81.454c-6.302 0-11.756-2.305-16.361-6.908-4.608-4.608-6.908-10.064-6.908-16.361v-92.372c0-6.312 2.178-11.644 6.541-16.002 93.085-98.906 213.816-237.317 362.177-415.27 4.369-5.823 10.426-8.727 18.185-8.727h141.812c10.192 0 17.227 4.351 21.094 13.096 4.847 8.727 3.897 16.97-2.912 24.729-141.557 173.579-252.838 303.516-333.808 389.815 82.425 9.695 149.334 36.367 200.73 79.995 51.389 43.632 82.657 100.37 93.816 170.186h122.18c6.781 0 12.362 2.175 16.718 6.541 4.369 4.353 6.554 9.932 6.554 16.718v74.179c0 6.799-2.186 12.37-6.554 16.736z" />
<glyph unicode="&#xe925;" glyph-name="error" d="M512 960c-282.77 0-512-229.23-512-512s229.23-512 512-512c282.77 0 512 229.23 512 512s-229.23 512-512 512zM512 121.186c-0.175-0.002-0.382-0.003-0.589-0.003-36.978 0-66.954 29.976-66.954 66.954 0 1.386 0.042 2.763 0.125 4.129-0.083 0.99-0.125 2.367-0.125 3.753 0 36.978 29.976 66.954 66.954 66.954 0.207 0 0.414-0.001 0.62-0.003 0.521 0.017 1.172 0.026 1.824 0.026 36.325 0 65.772-29.447 65.772-65.772 0-1.811-0.073-3.605-0.217-5.38 0.116-1.137 0.174-2.735 0.174-4.347 0-36.63-29.694-66.324-66.324-66.324-0.443 0-0.886 0.004-1.327 0.013zM538.545 391.68c-10.24-34.737-42.299-35.446-53.012 0-28.455 86.856-48.437 187.723-55.925 292.049-1.139 8.756-1.655 14.084-1.655 19.532 0 46.635 37.805 84.441 84.441 84.441s84.441-37.805 84.441-84.441c0-5.448-0.516-10.776-1.502-15.937-8.214-108.155-28.415-208.958-59.376-304.928z" />
<glyph unicode="&#xe926;" glyph-name="export" d="M293.1 10.358c-16.183 0-29.302 13.119-29.302 29.302v410.073h-190.385c-16.18 0.004-29.295 13.121-29.295 29.302 0 8.090 3.278 15.414 8.579 20.716l439.375 439.375c5.298 5.277 12.607 8.54 20.677 8.54s15.379-3.263 20.678-8.541l439.374-439.374c5.254-5.294 8.501-12.587 8.501-20.638 0-16.153-13.070-29.254-29.212-29.302h-190.39v-410.073c0-16.183-13.119-29.302-29.302-29.302h-439.296z" />
<glyph unicode="&#xe927;" glyph-name="import" d="M293.1 884.618c-16.183 0-29.302-13.119-29.302-29.302v-410.073h-190.385c-16.18-0.004-29.295-13.121-29.295-29.302 0-8.090 3.278-15.414 8.579-20.716l439.375-439.375c5.29-5.296 12.601-8.572 20.677-8.572s15.387 3.276 20.677 8.572l439.375 439.375c5.301 5.302 8.579 12.626 8.579 20.716 0 16.181-13.115 29.298-29.295 29.302h-190.386v410.073c0 0 0 0 0 0 0 16.128-13.029 29.212-29.136 29.302h-439.462z" />
<glyph unicode="&#xe928;" glyph-name="share" horiz-adv-x="887" d="M371.439 766.805l-110.046 190.737 525.653-141.244-140.356-526.131-112.845 195.447c-238.046-137.421-360.653-309.931-383.659-545.519-89.634 265.83-84.446 586.684 221.252 826.709z" />
<glyph unicode="&#xe929;" glyph-name="code" horiz-adv-x="1075" d="M340.019 259.174l-312.32 176.538v97.894l312.32 175.514v-114.79l-217.498-108.39 217.498-112.64v-114.278zM393.318 186.419l206.95 573.901h65.331l-207.36-573.901h-64.922zM735.744 259.174v114.278l217.446 111.514-217.446 110.746v113.408l312.32-175.821v-97.28z" />
<glyph unicode="&#xe92a;" glyph-name="employ" horiz-adv-x="808" d="M378.072 459.21c110.538 0 200.111 112.101 200.111 250.395s-29.427 250.395-200.111 250.395-200.219-112.101-200.219-250.395 89.681-250.395 200.219-250.395zM0 76.881c0 8.408 0 2.371 0 0v0zM755.981 70.306c0 2.317 0 16.168 0 0v0zM755.604 86.905c-3.719 240.909-34.223 309.571-267.965 353.011-25.291-26.752-61.026-43.403-100.65-43.403-3.138 0-6.251 0.104-9.337 0.31-2.242-0.205-5.348-0.308-8.478-0.308-39.63 0-75.372 16.65-100.611 43.337-231.215-43.051-263.606-110.527-267.918-344.861 0.3-2.145 0.472-4.624 0.472-7.142 0-3.882-0.407-7.67-1.181-11.321 0.063-3.849 0.063-11.502 0.063-24.975 0 0 55.727-115.55 378.072-115.55s377.964 115.55 377.964 115.55c0 8.623 0 14.659 0 18.701-0.309 3.736-0.485 8.087-0.485 12.479 0 1.468 0.020 2.931 0.059 4.389z" />
<glyph unicode="&#xe92b;" glyph-name="visibility-button" d="M512 797.091c-232.727 0-432.873-144.291-512-349.091 79.127-204.8 279.273-349.091 512-349.091s432.873 144.291 512 349.091c-79.127 204.8-279.273 349.091-512 349.091zM512 215.273c-130.327 0-232.727 102.4-232.727 232.727s102.4 232.727 232.727 232.727c130.327 0 232.727-102.4 232.727-232.727s-102.4-232.727-232.727-232.727zM512 587.636c-79.127 0-139.636-60.509-139.636-139.636s60.509-139.636 139.636-139.636c79.127 0 139.636 60.509 139.636 139.636s-60.509 139.636-139.636 139.636z" />
<glyph unicode="&#xe92c;" glyph-name="hidden-button" d="M514.338 705.169c130.922 0 233.79-102.868 233.79-233.79 0-28.055-4.676-60.785-18.703-84.164l135.598-135.596c70.137 60.784 126.247 135.596 158.977 219.763-79.49 205.735-280.548 350.685-514.338 350.685-65.461 0-126.247-14.027-187.032-32.731l102.868-102.868c28.055 14.026 60.785 18.701 88.84 18.701zM46.758 831.416l126.247-126.247c-79.489-60.785-140.274-140.274-173.005-233.79 79.489-205.735 280.548-350.685 514.338-350.685 70.137 0 140.274 14.027 205.735 37.406l154.3-154.301 60.785 60.785-827.615 827.616-60.785-60.785zM303.927 574.247l70.137-70.137c0-14.027 0-23.379 0-32.731 0-79.489 60.785-140.274 140.274-140.274 9.352 0 18.703 0 32.731 4.676l70.137-70.137c-32.731-18.703-65.459-28.055-102.868-28.055-130.922 0-233.79 102.868-233.79 233.79 0 37.406 9.352 70.137 23.379 102.868zM504.986 611.653l144.95-144.95c0 4.676 0 4.676 0 9.352 0 79.489-60.785 140.274-140.274 140.274 0-4.676 0-4.676-4.676-4.676z" />
<glyph unicode="&#xe92d;" glyph-name="shipment-box" d="M0 960v-1024h1024v1024h-1024zM78.769 881.231h866.462v-866.462h-866.462v866.462zM821.563 581.356c-22.285 24.583-54.34 39.958-89.987 39.958-0.82 0-1.637-0.008-2.453-0.024l-94.952 0.002v56.005c0.002 0.096 0.003 0.208 0.003 0.321 0 9.71-7.74 17.612-17.387 17.874l-433.255 0.001c-9.671-0.262-17.411-8.164-17.411-17.874 0-0.113 0.001-0.226 0.003-0.338v-399.422c-0.002-0.096-0.003-0.208-0.003-0.321 0-9.71 7.74-17.612 17.387-17.874l69.656-0.001c4.71-33.442 33.136-58.89 67.505-58.89s62.795 25.448 67.463 58.529l266.754 0.361c4.71-33.442 33.136-58.89 67.505-58.89s62.795 25.448 67.463 58.529l52.029 0.361c9.706 0.219 17.49 8.139 17.49 17.876 0 0.112-0.001 0.224-0.003 0.336v187.69c0.121 2.406 0.189 5.225 0.189 8.059 0 40.945-14.331 78.543-38.25 108.052zM201.255 659.18h398.1v-363.284h-214.174c-8.89 27.653-34.385 47.314-64.473 47.314s-55.583-19.661-64.339-46.836l-55.272-0.478v363.284zM320.748 236.898c-0.423-0.018-0.919-0.029-1.418-0.029-19.402 0-35.131 15.729-35.131 35.131s15.729 35.131 35.131 35.131c19.402 0 35.131-15.729 35.131-35.131 0-0.018 0-0.035 0-0.053 0.004-0.187 0.006-0.411 0.006-0.635 0-18.764-15.013-34.021-33.682-34.414zM722.471 236.898c-0.423-0.018-0.919-0.029-1.418-0.029-19.402 0-35.131 15.729-35.131 35.131s15.729 35.131 35.131 35.131c19.402 0 35.131-15.729 35.131-35.131 0-0.018 0-0.035 0-0.053 0.004-0.187 0.006-0.411 0.006-0.635 0-18.764-15.013-34.021-33.682-34.414zM824.399 296.054h-37.494c-8.805 27.746-34.332 47.499-64.473 47.499s-55.668-19.754-64.341-47.021l-23.762-0.478v289.241h95.074c53.972-2.581 96.754-46.967 96.754-101.346 0-6.499-0.611-12.856-1.779-19.016l0.1-168.879z" />
<glyph unicode="&#xe92e;" glyph-name="img-box" d="M0 960v-1024h1024v1024h-1024zM78.769 881.231h866.462v-866.462h-866.462v866.462zM567.138 584.586c17.401 0 31.508-14.106 31.508-31.508s-14.106-31.508-31.508-31.508c-17.401 0-31.508 14.106-31.508 31.508s14.106 31.508 31.508 31.508zM236.308 187.116v0c0-0.473 0-0.473 0.473-0.473s0.945-2.363 1.418-3.308 0.473-0.473 0.473-0.945 0.473-0.473 0.473-0.945l0.945-0.551c0.473-0.709 1.418-1.497 1.89-2.363l0.473-0.551 0.945-0.945c0.261 0 0.473-0.212 0.473-0.473 0.315-0.473 0.945-0.473 1.418-0.945l0.551-0.473c0.261 0 0.473-0.212 0.473-0.473 0.473-0.473 1.418-0.473 1.89-0.945 0.037 0.005 0.079 0.008 0.122 0.008 0.351 0 0.658-0.192 0.821-0.476l0.002-0.005c0.373-0.053 0.698-0.224 0.945-0.473 1.075-0.311 2.31-0.489 3.587-0.489 0.235 0 0.468 0.006 0.699 0.018l513.858-0.001c0.071-0.001 0.154-0.001 0.238-0.001 10.615 0 19.22 8.605 19.22 19.22 0 0.084-0.001 0.167-0.002 0.25v512.46c0 0.047 0.001 0.103 0.001 0.158 0 10.658-8.64 19.298-19.298 19.298-0.056 0-0.111 0-0.167-0.001h-512.464c-0.047 0-0.103 0.001-0.158 0.001-10.658 0-19.298-8.64-19.298-19.298 0-0.056 0-0.111 0.001-0.167v-511.519c0-1.418 0.473-3.308 0.473-4.726v-0.945zM750.198 211.692h-429.371l317.204 207.557 112.167-106.811v-100.746zM275.22 684.78h474.978v-318.7l-96.414 92.16c-3.571 3.314-8.372 5.348-13.647 5.348-3.899 0-7.539-1.111-10.62-3.034l-90.657-59.815-63.015 63.646c-3.531 3.582-8.436 5.8-13.859 5.8-3.826 0-7.394-1.104-10.403-3.012l-176.364-111.096v328.704zM275.22 310.075l183.847 115.87 46.553-47.262-230.4-150.292v81.684z" />
<glyph unicode="&#xe92f;" glyph-name="msg-box" d="M0 960v-1024h1024v1024h-1024zM78.769 881.231h866.462v-866.462h-866.462v866.462zM732.554 723.692h-441.108c-30.452 0-55.138-24.686-55.138-55.138v-496.246l110.277 110.277h385.969c30.452 0 55.138 24.686 55.138 55.138v330.831c0 30.452-24.686 55.138-55.138 55.138zM429.292 475.569h-55.138v55.138h55.138v-55.138zM539.569 475.569h-55.138v55.138h55.138v-55.138zM649.846 475.569h-55.138v55.138h55.138v-55.138z" />
<glyph unicode="&#xe930;" glyph-name="settings" d="M634.387 324.882c-9.398-9.398-9.398-24.645 0-33.834l222.009-222.009 33.834 33.834-221.801 222.009c-9.398 9.398-24.645 9.398-34.043 0zM1023.269 448.104v47.827c0 17.752-12.949 33.207-30.492 36.131l-95.236 15.873c-9.398 36.549-23.809 71.010-42.606 102.964l55.972 78.737c10.234 14.62 8.563 34.461-3.968 46.992l-67.25 67.25c-12.531 12.531-32.372 14.202-46.992 3.759l-78.737-55.972c-31.954 19.006-66.415 32.999-102.964 42.606l-16.082 95.236c-2.924 17.752-18.17 30.492-36.131 30.492h-95.654c-17.126-0.835-32.372-13.784-35.296-31.119l-15.873-95.236c-36.549-9.398-71.010-23.809-102.964-42.606l-78.737 55.972c-14.62 10.234-34.461 8.563-46.992-3.968l-33.416-34.043-33.625-33.625c-12.531-12.531-14.202-32.372-3.759-46.992l55.972-78.737c-19.423-32.372-34.043-67.668-43.023-105.47l-94.192-16.082c-17.544-2.924-30.492-18.17-30.492-36.131v-95.654c0-17.752 12.949-33.207 30.492-36.131l96.072-16.29c9.398-36.549 24.645-71.010 43.023-102.337l-56.39-77.484c-10.234-14.62-8.563-34.461 3.968-46.992l67.25-67.25c12.531-12.531 32.372-14.202 46.992-3.759l79.155 56.39c31.954-18.588 66.415-32.581 102.964-41.77l16.082-94.192c3.133-17.752 18.17-30.492 36.131-30.492h95.654c17.752 0 33.207 12.949 36.131 30.492l16.29 96.072c8.354 2.089 16.499 4.595 24.436 7.31 2.089 0.627 4.386 1.462 6.474 2.297 6.683 2.297 13.158 4.804 19.632 7.519 1.462 0.627 2.924 1.253 4.386 1.88 7.728 3.342 15.246 6.892 22.765 10.651 0.209 0.209 0.418 0.209 0.627 0.418 7.519 3.759 15.037 7.936 22.138 12.113 4.595 2.715 9.189 5.639 13.575 8.563l-122.805 122.805c-21.929 21.929-52.422 32.581-83.541 30.492-52.631-3.55-106.514 14.62-146.614 54.928-48.662 48.662-65.162 117.584-49.498 180.030 1.044 4.595 6.892 6.057 10.025 2.715l76.649-76.649c22.765-22.765 60.358-22.765 83.123 0.209l34.878 34.878c22.974 22.974 22.974 60.358 0.209 83.123l-80.617 80.617c-3.133 3.133-1.88 8.563 2.297 10.025 65.371 20.885 139.931 5.639 191.726-46.156 42.188-42.188 60.149-99.413 54.093-154.55-3.55-32.79 7.101-65.579 30.492-88.971l116.33-116.33c3.759 5.848 7.31 11.696 10.86 17.544 3.968 6.892 7.728 13.784 11.278 20.885 1.044 2.089 2.089 4.177 3.133 6.266 2.297 4.804 4.386 9.607 6.683 14.62 1.671 3.759 3.342 7.728 4.804 11.487 1.044 2.506 1.88 5.221 2.924 7.936 2.089 5.43 3.968 10.86 5.848 16.499v0c2.297 7.519 4.595 14.828 6.683 22.347l95.236 16.082c17.752 2.924 30.492 18.17 30.492 36.131v47.827z" />
<glyph unicode="&#xe931;" glyph-name="tax" d="M806.683 696.085c14.879 0 19.070 20.118 5.658 26.195l-523.698 232.196c-31.854 14.25-69.365 0-83.616-32.063l-183.368-411.163c-14.25-31.854 0-69.365 32.063-83.616l105.62-45.685c13.202-5.868 28.291 3.772 28.291 18.232v174.566c0 66.851 54.277 121.127 121.127 121.127l497.922 0.21zM943.737 639.084h-635.185c-35.416 0-64.126-28.71-64.126-64.126v-448.674c0-35.416 28.71-64.126 64.126-64.126h85.292c-2.096 12.574-3.143 25.357-3.143 38.35 0 14.669 1.467 28.92 3.982 42.96h-68.737v214.802h600.607v-214.592h-68.946c2.515-14.041 3.982-28.291 3.982-42.96 0-12.993-1.048-25.776-3.143-38.35h85.292c35.416 0 64.126 28.71 64.126 64.126v448.465c0 35.416-28.71 64.126-64.126 64.126zM926.553 490.504h-600.607v67.27h600.607v-67.27zM626.25 265.433c-90.95 0-164.716-73.766-164.716-164.716s73.766-164.716 164.716-164.716 164.716 73.766 164.716 164.716-73.766 164.716-164.716 164.716zM673.611 35.752c-7.125-8.802-16.555-14.669-27.453-17.603-4.82-1.257-6.916-3.772-6.706-8.802 0.21-4.82 0-9.64 0-14.669 0-4.401-2.305-6.706-6.496-6.706-5.239-0.21-10.478-0.21-15.717 0-4.61 0-6.706 2.724-6.706 7.125 0 3.563 0 7.125 0 10.688 0 7.754-0.419 8.173-7.963 9.43-9.64 1.467-19.070 3.772-27.872 7.963-6.916 3.353-7.754 5.030-5.658 12.364 1.467 5.449 2.934 10.897 4.61 16.136 1.886 6.287 3.563 6.916 9.43 3.982 9.849-5.030 20.118-7.963 31.015-9.221 6.916-0.838 13.831-0.21 20.328 2.724 12.155 5.239 14.041 19.28 3.772 27.662-3.563 2.934-7.335 5.030-11.526 6.706-10.688 4.61-21.795 8.173-31.644 14.25-16.346 9.64-26.614 23.052-25.357 42.96 1.257 22.423 14.041 36.254 34.578 43.799 8.383 3.143 8.592 2.934 8.592 11.736 0 2.934 0 6.077 0 9.011 0.21 6.706 1.257 7.754 7.963 7.963 2.096 0 4.191 0 6.077 0 14.25 0 14.25 0 14.25-14.25 0-10.059 0-10.059 10.059-11.526 7.544-1.257 14.879-3.353 22.004-6.496 3.982-1.677 5.449-4.401 4.191-8.592-1.677-6.077-3.353-12.364-5.449-18.232-1.886-5.658-3.772-6.496-9.221-3.982-11.107 5.449-22.633 7.544-34.787 6.916-3.143-0.21-6.287-0.629-9.221-1.886-10.478-4.61-12.364-16.346-3.353-23.471 4.61-3.563 9.64-6.287 15.089-8.592 9.43-3.772 18.651-7.544 27.662-12.574 27.662-15.298 35.416-50.714 15.508-74.814z" />
<glyph unicode="&#xe932;" glyph-name="cms" d="M750.933 755.2h-341.333v-170.667h341.333v170.667zM699.733 618.667h-238.933v34.133h238.933v-34.133zM699.733 686.933h-238.933v34.133h238.933v-34.133zM290.133 960h-170.667v-1024h785.067v1024h-614.4zM256-29.867h-102.4v955.733h102.4v-955.733zM785.067 550.4h-409.6v238.933h409.6v-238.933z" />
<glyph unicode="&#xe933;" glyph-name="app-store" d="M0 344.020v138.955c0 12.727 10.456 23.138 23.265 23.138h245.546l-106.905-185.263h-138.64c-12.808 0-23.265 10.39-23.265 23.169zM174.911 59.485l-78.362-53.091c-10.544-7.166-18.001-2.631-16.539 10.023l10.456 90.833c1.455 12.654 11.716 17.822 22.812 11.499l60.645-34.645c11.078-6.354 11.532-17.475 0.988-24.619zM193.729 110.685l-60.645 34.657c-11.087 6.333-14.994 20.534-8.545 31.578l280.819 486.789c6.371 11.061 20.732 14.939 31.812 8.523l60.645-34.566c11.094-6.416 14.901-20.629 8.545-31.65l-280.814-486.822c-6.361-11.044-20.734-14.832-31.816-8.509zM407.451 320.85l106.905 185.263h61.557l86.809-185.263h-255.271zM755.635 265.565c-24.276 12.123-145.188 289.861-176.166 362.326-31.012 72.468-124.651 265.363-94.361 280.373 21.543 10.761 98.903-141.133 156.896-232.323 57.909-91.195 179.008-326.324 193.91-353.101 14.825-26.845-14.265-49.224-30.443-55.924-16.194-6.699-25.569-13.377-49.836-1.352zM835.090 137.904l-36.533 57.457c-7.556 11.956-3.633 26.712 8.621 33.011l34.823 17.832c12.278 6.245 27.645 1.178 34.178-11.323l28.819-55.188c6.557-12.477 2.090-28.502-9.732-35.556l-24.9-14.825c-11.82-7.14-27.721-3.25-35.276 8.592zM969.545-12.804c-7.633 24.346-65.911 25.955-92.002 62.611-26.176 36.535-4.542 55.357 4.545 64.044 105.824 59.345 87.457-126.656 87.457-126.656zM1024 344.020c0-12.777-10.454-23.167-23.265-23.167h-122.911c-1.355 7.145-3.554 14.289-7.268 20.989-3.2 5.702-11.287 21.079-22.555 42.511-16.268 30.933-39.632 75.172-64.644 121.761h217.367c12.813 0 23.267-10.411 23.267-23.138v-138.955h0.010z" />
<glyph unicode="&#xe934;" glyph-name="upload-cloud" d="M934.816 444.95c3.558 17.569 5.443 35.75 5.443 54.372 0 150.54-122.039 272.579-272.582 272.579-111.638 0-207.55-67.152-249.692-163.237-32.381 21.094-70.964 33.464-112.489 33.464-109.176 0-198.334-84.786-205.772-192.070-58.801-26.982-99.724-86.227-99.724-155.161 0-94.328 76.471-170.8 170.8-170.8 0 0 185.039 0 246.716 0 12.096 0 12.684 13.423 12.684 13.423v109.578c0 9.361-7.659 17.020-17.022 17.020h-46.669c-9.361 0-12.464 6.155-6.889 13.674l142.252 192.031c5.572 7.521 14.69 7.521 20.262 0l142.249-192.031c5.567-7.519 2.47-13.674-6.886-13.674h-46.674c-9.356 0-17.020-7.659-17.020-17.020v-109.796c0 0 0.71-13.205 13.239-13.205 61.543 0 246.159 0 246.159 0 94.328 0 170.8 76.471 170.8 170.8 0 64.759-36.059 121.098-89.184 150.053z" />
<glyph unicode="&#xe935;" glyph-name="file" d="M1010.893-34.833l-101.888 106.564c29.798 32.751 48.128 76.083 48.128 123.75 0.017 101.598-82.637 184.252-184.235 184.252s-184.252-82.654-184.252-184.252 82.654-184.252 184.252-184.252c41.677 0 80.026 14.063 110.916 37.478l102.417-107.11c3.345-3.516 7.834-5.274 12.339-5.274 4.25 0 8.482 1.57 11.793 4.727 6.793 6.502 7.049 17.323 0.529 24.115zM622.78 195.482c0 82.773 67.345 150.118 150.118 150.118s150.118-67.345 150.118-150.118-67.345-150.118-150.118-150.118-150.118 67.345-150.118 150.118zM544.119 140.8h-348.006c-9.421 0-17.067 7.629-17.067 17.067s7.646 17.067 17.067 17.067h342.374c-0.597 6.793-1.041 13.619-1.041 20.548 0 28.809 5.461 56.303 14.967 81.852h-356.301c-9.421 0-17.067 7.629-17.067 17.067s7.646 17.067 17.067 17.067h372.139c40.533 71.236 116.992 119.467 204.646 119.467 12.834 0 25.344-1.314 37.615-3.294v283.426l-248.934 248.934h-553.199v-1024h802.133v27.324c-12.271-1.98-24.781-3.294-37.615-3.294-110.985 0-204.032 77.278-228.779 180.77zM571.58 891.733l170.667-170.667h-170.667v170.667zM196.113 721.067h170.667c9.421 0 17.067-7.629 17.067-17.067s-7.646-17.067-17.067-17.067h-170.667c-9.421 0-17.067 7.629-17.067 17.067s7.646 17.067 17.067 17.067zM196.113 584.533h426.667c9.421 0 17.067-7.629 17.067-17.067s-7.646-17.067-17.067-17.067h-426.667c-9.421 0-17.067 7.629-17.067 17.067s7.646 17.067 17.067 17.067zM196.113 448h426.667c9.421 0 17.067-7.629 17.067-17.067s-7.646-17.067-17.067-17.067h-426.667c-9.421 0-17.067 7.629-17.067 17.067s7.646 17.067 17.067 17.067z" />
<glyph unicode="&#xe936;" glyph-name="drive" d="M319.996 860.768l-315.4-542.662c-6.026-10.376-6.138-23.158-0.264-33.622l139.58-248.862 335.578 559.31-159.494 265.836zM361.9 267.156v0l-159.838-266.41c-1.078-1.804-2.618-3.18-3.846-4.856h653.776c12.274 0 23.578 6.624 29.582 17.33l142.426 253.936h-662.1zM704.992 883.244c-6.072 10.442-17.242 16.866-29.318 16.866h-300.21l339.074-565.138h309.116l-318.662 548.272z" />
<glyph unicode="&#xe937;" glyph-name="dropbox" d="M277.073 925.171l-268.431-174.744c-10.97-7.143-11.574-19.548-1.351-27.711l194.042-155.007 310.666 191.164-196.863 164.059c-10.058 8.376-27.093 9.371-38.064 2.24zM710.711 173.416l-197.455 163.478v1.28l-0.627-0.641-0.627 0.641v-1.28l-196.84-163.443c-10.070-8.365-27.107-9.334-38.066-2.18l-72.598 47.423v-44.225c0-13.092 9.098-29.145 20.33-35.872 0 0 287.183-172.222 287.183-172.4s0.141-0.178 0.319 0 0.449 0.178 0.627 0 0.321-0.178 0.321 0 287.801 172.421 287.801 172.421c11.231 6.719 20.341 22.771 20.341 35.851v44.225l-72.598-47.423c-10.98-7.155-28.042-6.196-38.112 2.145zM8.641 384.354l268.42-174.746c10.97-7.143 28.007-6.136 38.066 2.24l196.874 164.059-310.655 191.805-194.068-155.611c-10.213-8.188-9.596-20.614 1.363-27.746zM1015.37 750.44l-267.827 174.708c-10.959 7.155-28.007 6.171-38.064-2.191l-197.48-164.082 310.655-191.164 194.042 155.007c10.227 8.161 9.633 20.578-1.326 27.723zM1016.721 412.1l-194.068 155.611-290.49-179.352c-11.137-6.872-12-19.228-1.93-27.591l179.247-148.942c10.068-8.363 27.105-9.346 38.064-2.191l267.825 174.696c10.959 7.155 11.564 19.581 1.351 27.769z" />
<glyph unicode="&#xe938;" glyph-name="left-arrow" d="M780.994 941.002c-12.662 12.669-27.667 18.998-44.997 18.998-17.334 0-32.339-6.329-45.001-18.998l-447.996-448c-12.662-12.669-18.998-27.663-18.998-44.997s6.336-32.339 18.998-44.997l447.996-448c12.658-12.669 27.663-19.012 45.001-19.012 17.331 0 32.335 6.343 44.997 19.012 12.669 12.658 19.008 27.663 19.008 44.997v896c-0.004 17.334-6.34 32.325-19.008 44.997z" />
<glyph unicode="&#xe939;" glyph-name="right-arrow" d="M780.994 493.002l-447.996 448c-12.669 12.669-27.653 18.998-44.997 18.998s-32.339-6.329-45.008-18.998c-12.669-12.669-18.998-27.663-18.998-44.997v-895.996c0-17.331 6.329-32.335 18.998-44.997 12.683-12.669 27.677-19.012 45.008-19.012 17.334 0 32.328 6.343 44.997 19.012l447.996 448c12.658 12.655 19.012 27.66 19.012 44.997 0 17.331-6.35 32.325-19.012 44.994z" />
<glyph unicode="&#xe93a;" glyph-name="link" d="M511.986 960c-282.757 0-511.983-229.243-511.983-511.99s229.226-512.010 511.983-512.010 512.010 229.25 512.010 512.010-229.253 511.99-512.010 511.99zM769.239 539.129l-125.222-125.222c-13.582-13.582-31.638-21.060-50.842-21.060-19.2 0-37.26 7.482-50.842 21.053l-4.905 4.905-13.332-13.332 4.895-4.895c28.037-28.037 28.037-73.656 0-101.693l-125.204-125.222c-13.582-13.582-31.638-21.060-50.852-21.060-19.21 0-37.27 7.482-50.859 21.071l-47.326 47.34c-28.037 28.020-28.037 73.636-0.010 101.683l125.232 125.215c13.582 13.582 31.638 21.060 50.852 21.060s37.26-7.482 50.852-21.060l4.888-4.888 13.332 13.332-4.888 4.888c-28.037 28.027-28.037 73.646-0.017 101.683l125.232 125.222c13.588 13.588 31.648 21.071 50.852 21.071s37.26-7.482 50.852-21.060l47.336-47.353c28.013-28.020 28.013-73.646-0.024-101.676zM486.533 367.927l-24.211-24.211-37.553 37.543 24.211 24.211-4.888 4.888c-3.55 3.54-8.267 5.499-13.278 5.499-5.021 0-9.738-1.956-13.288-5.499l-125.222-125.204c-7.322-7.328-7.322-19.244 0-26.566l47.343-47.353c7.11-7.11 19.483-7.1 26.576-0.010l125.204 125.222c7.332 7.328 7.332 19.255 0 26.586l-4.895 4.895zM684.349 650.605c-3.55 3.55-8.277 5.506-13.298 5.506s-9.748-1.956-13.298-5.516l-125.222-125.215c-7.311-7.328-7.311-19.244 0.010-26.576l4.895-4.888 37.137 37.147 37.553-37.553-37.137-37.147 4.895-4.895c7.11-7.089 19.466-7.1 26.576 0.010l125.215 125.204c7.322 7.328 7.322 19.244 0 26.576l-47.326 47.346z" />
<glyph unicode="&#xe93b;" glyph-name="bms" d="M704 480c0 0 128 51.2 128 230.4 0 262.4-326.4 249.6-448 249.6h-256v-1024h256c236.8 0 512 0 512 281.6 0 243.2-192 262.4-192 262.4zM576 678.4c0-115.2-96-102.4-192-102.4v192c115.2 0 192-6.4 192-89.6zM384 128v256c115.2 0 256 19.2 256-140.8 0-121.6-160-115.2-256-115.2z" />
<glyph unicode="&#xe93c;" glyph-name="giftbox" d="M37.625 484.855h430.76v127.38h87.225v-127.38h430.76v256.667h-167.599c31.772 62.902 26.936 134.924-17.925 179.786-24.947 24.952-59.588 38.693-97.529 38.693-48.483 0-98.203-21.918-136.414-60.129-35.791-35.796-49.807-93.945-54.904-142.954-5.097 49.010-19.113 107.163-54.908 142.954-38.207 38.211-87.931 60.129-136.409 60.129-37.941 0-72.577-13.741-97.533-38.693-29.535-29.535-43.157-72.66-37.373-118.31 2.668-21.038 9.245-41.846 19.241-61.476h-167.393v-256.667zM631.726 835.049c20.836 20.84 47.603 33.284 71.592 33.284 9.52 0 22.926-2.058 32.716-11.848 22.083-22.078 12.068-70.831-21.432-104.326-16.418-16.418-59.625-27.688-113.057-30.044 2.090 43.899 11.069 93.821 30.181 112.933zM287.966 856.485c9.79 9.79 23.196 11.848 32.716 11.848 23.989 0 50.756-12.444 71.592-33.284 19.282-19.282 28.206-68.727 30.218-112.933-53.446 2.351-96.676 13.622-113.094 30.044-18.035 18.035-29.948 40.76-32.684 62.361-1.293 10.18-1.545 29.168 11.252 41.965zM468.385 403.5v-467.5h-365.448v467.5h365.448zM555.615-64v467.5h365.448v-467.5h-365.448z" />
<glyph unicode="&#xe93d;" glyph-name="table" d="M375.467 226.133h119.467v-119.467h-119.467v119.467zM375.467 533.333h119.467v-119.467h-119.467v119.467zM375.467 379.733h119.467v-119.467h-119.467v119.467zM221.867 379.733h119.467v-119.467h-119.467v119.467zM221.867 533.333h119.467v-119.467h-119.467v119.467zM221.867 226.133h119.467v-119.467h-119.467v119.467zM682.667 533.333h119.467v-119.467h-119.467v119.467zM972.8 891.733h-119.467v51.2c0 9.438-7.629 17.067-17.067 17.067h-119.467c-9.438 0-17.067-7.629-17.067-17.067v-51.2h-375.467v51.2c0 9.438-7.629 17.067-17.067 17.067h-119.467c-9.438 0-17.067-7.629-17.067-17.067v-51.2h-119.467c-9.438 0-17.067-7.629-17.067-17.067v-921.6c0-9.438 7.629-17.067 17.067-17.067h921.6c9.438 0 17.067 7.629 17.067 17.067v921.6c0 9.438-7.629 17.067-17.067 17.067zM836.267 413.867v-341.333h-648.533v494.933h648.533v-153.6zM955.733 704h-887.467v153.6h102.4v-51.2c0-9.438 7.629-17.067 17.067-17.067h119.467c9.438 0 17.067 7.629 17.067 17.067v51.2h375.467v-51.2c0-9.438 7.629-17.067 17.067-17.067h119.467c9.438 0 17.067 7.629 17.067 17.067v51.2h102.4v-153.6zM682.667 379.733h119.467v-119.467h-119.467v119.467zM682.667 226.133h119.467v-119.467h-119.467v119.467zM529.067 226.133h119.467v-119.467h-119.467v119.467zM529.067 379.733h119.467v-119.467h-119.467v119.467zM529.067 533.333h119.467v-119.467h-119.467v119.467z" />
<glyph unicode="&#xe93e;" glyph-name="fast-delivery" d="M1023.985 437.906c0 0.191-0.010 0.383-0.012 0.574-0.281 12.833-10.586 23.058-23.574 23.058h-6.19l-95.593 184.816c-4.033 7.804-12.077 12.663-20.957 12.666l-163.203 0.034 6.226 49.353c1.776 19.723-4.321 38.346-17.173 52.441-12.828 14.066-30.738 21.815-50.434 21.815h-506.525c-12.736 0-23.555-9.854-24.769-22.559l-5.077-40.663h288.593c18.739 0 33.532-15.191 33.043-33.93-0.492-18.739-16.080-33.93-34.819-33.93h-96.262c0.017-0.048 0.034-0.097 0.051-0.143h-282.68c-13.252 0-24.277-10.741-24.623-23.993s10.114-23.993 23.366-23.993h374.237c17.372-2.676 30.35-17.699 29.873-35.888-0.523-19.975-17.059-36.172-37.001-36.339h-258.008c-13.385 0-24.519-10.85-24.871-24.236s10.215-24.236 23.601-24.236h254.969c17.627-2.455 30.864-17.6 30.384-35.966-0.526-20.077-17.229-36.353-37.306-36.353l-317.085-0.027c-13.385 0-24.519-10.85-24.871-24.236s10.213-24.236 23.601-24.236h21.211l-8.296-86.807c-1.779-19.721 4.319-38.343 17.173-52.439 12.826-14.069 30.738-21.815 50.434-21.815h18.298c8.72-49.862 51.859-87.537 104.628-87.537s97.881 37.674 109.206 87.534h228.346c18.463 0 35.941 7.060 49.649 18.618 12.535-12.031 29.151-18.618 47.293-18.618h3.757c8.718-49.86 51.857-87.534 104.628-87.534 52.768 0 97.881 37.674 109.206 87.534h15.072c39.264 0 74.086 31.921 77.624 71.156l14.769 163.605c0.019 0.221 0.010 0.439 0.024 0.662 0.024 0.337 0.070 0.666 0.080 1.006 0.005 0.204-0.015 0.4-0.015 0.603zM265.615 161.811c-33.409 0-59.879 27.178-59.004 60.587 0.875 33.411 28.768 60.592 62.177 60.592s59.877-27.18 59.002-60.592c-0.875-33.409-28.765-60.587-62.174-60.587zM808.494 161.811c-33.409 0-59.877 27.178-59.004 60.587 0.875 33.411 28.768 60.592 62.177 60.592s59.879-27.18 59.002-60.592c-0.875-33.409-28.765-60.587-62.174-60.587zM960.839 275.13c-1.26-13.977-14.112-25.784-28.065-25.784h-16.303c-10.795 47.146-52.698 82.115-103.537 82.115s-94.572-34.97-107.834-82.115h-4.99c-6.161 0-11.657 2.31-15.484 6.507-3.851 4.222-5.664 9.968-5.104 16.18l30.559 338.55 70.184-0.015-11.124-123.243c-1.781-19.721 4.314-38.343 17.166-52.439 12.826-14.071 30.743-21.822 50.442-21.822h136.539l-12.447-137.935z" />
<glyph unicode="&#xe93f;" glyph-name="DHL" horiz-adv-x="5773" d="M1099.074 838.407l-176.645-239.996c0 0 915.758 0 962.726 0 48.664 0 48.021-18.491 24.244-50.712-24.157-32.719-64.58-89.605-89.186-122.812-12.483-16.862-35.060-47.582 39.751-47.582 79.102 0 393.704 0 393.704 0s63.459 86.348 116.648 158.544c72.372 98.197 6.271 302.558-252.431 302.558-231.561 0-1018.812 0-1018.812 0v0zM850.954 56.539l354.801 482.099c0 0 393.323 0 440.291 0 48.664 0 48.021-18.491 24.244-50.712-24.157-32.719-65.253-88.99-89.849-122.227-12.493-16.862-35.060-47.631 39.741-47.631 79.102 0 589.844 0 589.844 0-49.045-67.204-208.165-261.52-493.89-261.52-231.561-0.010-865.182-0.010-865.182-0.010v0zM2882.921 318.128l-192.395-261.588h-507.533c0 0 192.297 261.52 192.463 261.52l507.465 0.068zM3660.459 377.305h-1241.41l339.471 461.102h507.387l-194.57-264.407h226.489l194.648 264.407h507.338l-339.354-461.102zM3616.875 318.069l-192.492-261.53h-507.348c0 0 192.307 261.52 192.473 261.52l507.368 0.010zM126.781 214.947h747.676l-40.843-55.579h-706.833v55.579zM126.781 318.069h823.637l-40.921-55.491h-782.716v55.491zM126.781 111.748h671.754l-40.648-55.208h-631.106v55.208zM5655.698 159.369h-744.819l40.872 55.569h703.946v-55.569zM5655.698 56.539l-820.536-0.059 40.648 55.267h779.888v-55.208zM5027.616 318.069h628.083v-55.52l-668.896-0.039 40.814 55.559zM4702.491 838.407l-339.432-461.102h-537.62c0 0 339.49 461.102 339.656 461.102h537.395zM3781.925 318.069c0 0-37.088-50.683-55.101-75.045-63.732-86.123-7.392-186.475 200.587-186.475 240.191 0 814.841 0 814.841 0l192.473 261.52h-1152.8z" />
<glyph unicode="&#xe940;" glyph-name="emi" d="M838.136 960h-652.27c-25.704 0-46.544-20.84-46.544-46.546v-930.908c0-25.702 20.84-46.546 46.546-46.546h652.266c25.706 0 46.546 20.844 46.546 46.546v930.908c0.002 25.706-20.838 46.546-46.544 46.546zM356.534 29.090h-124.122v124.122h124.122v-124.122zM356.534 246.302h-124.122v124.128h124.122v-124.128zM356.534 463.522h-124.122v124.114h124.122v-124.114zM573.746 29.090h-124.122v124.122h124.122v-124.122zM573.746 246.302h-124.122v124.128h124.122v-124.128zM573.746 463.522h-124.122v124.114h124.122v-124.114zM403.078 680.728h-170.666v186.182h559.176v-186.182h-388.51zM666.836 587.636h124.752v-124.114h-124.752v124.114zM791.59 29.090h-124.75v341.338h124.752v-341.338z" />
<glyph unicode="&#xe941;" glyph-name="bank-transfer" horiz-adv-x="992" d="M129.344 270.656c-0.352 10.528-0.672 23.232-1.12 37.856 0.439 17.76 2.005 34.758 4.637 51.402l-0.285-2.186c1.635 21.447 5.579 41.337 11.616 60.293l-0.512-1.861c5.51 24.309 12.98 45.613 22.537 65.734l-0.809-1.894c4.832 10.752 9.792 21.792 14.976 32.896s12.8 20.8 19.36 31.488c14.274 22.734 29.522 42.489 46.456 60.651l-0.216-0.235c17.253 18.975 35.145 36.432 54.029 52.774l0.787 0.666c20.192 14.528 39.456 31.328 60.064 43.168 16.728 11.092 36.452 22.509 56.851 32.782l3.405 1.554c19.456 10.688 38.752 17.888 56.352 25.92 27.232 10.72 51.424 19.2 71.296 25.024-7.65 18.15-14.778 40.041-20.165 62.609l-0.603 2.991c-5.951 22.438-9.807 48.408-10.704 75.127l-0.016 0.585c26.573-8.13 49.565-18.172 71.11-30.462l-1.702 0.894c22.423-12.207 41.605-24.8 59.669-38.769l-1.013 0.753c36.012-27.578 67.517-58.067 95.209-91.806l0.791-0.994c11.246-13.422 18.077-30.876 18.077-49.926 0-14.478-3.945-28.034-10.819-39.652l0.198 0.362-3.2-5.6c-27.188-46.359-58.375-86.357-94.103-121.783l-0.041-0.041c-18.523-18.464-38.627-35.369-60.081-50.484l-1.455-0.972c-11.424-7.776-23.392-15.328-35.584-22.592-11.202-6.419-24.588-12.867-38.434-18.409l-2.238-0.791c-0.409 6.076-0.642 13.171-0.642 20.32 0 8.898 0.361 17.711 1.069 26.426l-0.075-1.146c1.408 14.368 3.2 28.416 5.376 42.304 5.303 29.946 12.472 56.211 21.728 81.469l-1.056-3.293c0.896 2.688 1.952 5.184 2.976 7.84-8.64-1.056-17.664-2.272-27.424-3.712-15.232-3.2-32.736-5.6-50.112-10.752-21.812-5.211-40.088-10.964-57.82-17.81l3.068 1.042c-19.456-5.856-36.896-16-56.672-23.968-21.053-11.328-38.689-22.336-55.586-34.316l1.634 1.1c-18.331-12.616-34.359-26.216-48.908-41.257l-0.084-0.087c-7.264-7.68-15.68-14.72-22.4-22.912s-12.512-16.864-18.688-25.056c-11.528-14.95-21.931-31.861-30.475-49.827l-0.725-1.693c-8.475-14.54-15.811-31.356-21.135-49.043l-0.433-1.677c-4.878-12.121-9.736-27.234-13.627-42.731l-0.549-2.581c-2.624-14.080-4.96-26.24-6.816-36.384-3.712-20.416-5.92-32-5.92-32s-0.384 11.936-1.024 32.672zM583.072 130.624c-19.2-11.296-38.24-19.2-55.552-27.616-26.944-11.552-50.72-20.608-70.4-27.168 8.22-17.984 15.99-39.598 22.042-61.918l0.71-3.074c6.37-22.017 10.923-47.715 12.736-74.166l0.064-1.162c-26.807 7.252-50.135 16.615-72.028 28.312l1.82-0.888c-22.985 11.542-42.58 23.581-61.051 37.067l1.211-0.843c-37.027 26.788-69.345 56.375-97.97 89.26l-0.59 0.692c-12.082 13.669-19.459 31.743-19.459 51.539 0 13.633 3.498 26.449 9.646 37.599l-0.203-0.402 3.2 5.568c25.981 47.481 56.030 88.415 90.727 124.885l-0.231-0.245c18.165 19.259 37.72 36.764 58.661 52.526l1.179 0.85c11.328 8.096 22.816 16 34.944 23.584 11.235 6.948 24.408 13.782 38.093 19.652l2.003 0.764c0.826-8.761 1.297-18.943 1.297-29.236 0-5.722-0.146-11.41-0.433-17.061l0.032 0.793c-1.024-14.4-2.304-28.544-4.064-42.464-4.432-30.018-10.817-56.621-19.284-82.277l0.98 3.429c-0.896-2.688-1.984-5.184-2.784-7.872 8.576 1.312 17.6 2.784 27.36 4.576 15.2 3.712 32.48 6.4 49.664 12.224 21.626 5.787 39.724 12.081 57.231 19.497l-2.831-1.065c19.2 6.4 36.48 16.96 55.936 25.6 20.423 11.83 37.673 23.334 54.17 35.783l-1.338-0.967c17.773 13.006 33.379 27.059 47.453 42.531l0.227 0.253c7.264 7.904 15.392 15.232 21.76 23.52s11.968 17.248 17.92 25.6c11.039 15.157 20.964 32.398 28.97 50.671l0.694 1.777c8.049 14.692 14.86 31.723 19.55 49.613l0.354 1.587c4.554 12.32 8.965 27.621 12.364 43.3l0.436 2.396c2.208 14.112 4.064 26.4 5.696 36.544 3.424 20.512 5.056 32.256 5.056 32.256s0.864-11.776 1.984-32.512c0.544-10.528 1.216-23.264 2.208-37.824 0.001-0.247 0.001-0.538 0.001-0.83 0-17.118-1.163-33.965-3.415-50.465l0.214 1.919c-0.931-21.238-4.282-41.298-9.792-60.444l0.448 1.82c-4.868-24.414-11.733-45.934-20.673-66.338l0.801 2.050c-4.512-10.912-9.216-22.080-13.952-33.344s-12.192-21.216-18.464-32c-13.666-23.433-28.339-43.701-44.763-62.392l0.379 0.44c-16.96-19.713-34.345-37.625-52.74-54.451l-0.476-0.429c-19.776-15.168-38.4-32.544-58.88-45.024-16.713-11.922-35.954-23.858-55.946-34.578l-2.902-1.422z" />
<glyph unicode="&#xe942;" glyph-name="shortcurt" horiz-adv-x="819" d="M605.828 960h-474.171v-658.286h204.8l-0.249-219.429h482.992v664.342zM292.571 755.2h146.286c8.079 0 14.629-6.549 14.629-14.629s-6.549-14.629-14.629-14.629v0h-146.286c-8.079 0-14.629 6.549-14.629 14.629s6.549 14.629 14.629 14.629v0zM658.286 257.829h-307.2v29.257h307.2c8.079 0 14.629-6.549 14.629-14.629s-6.549-14.629-14.629-14.629v0zM658.286 374.857h-365.714c-8.079 0-14.629 6.549-14.629 14.629s6.549 14.629 14.629 14.629v0h365.714c8.079 0 14.629-6.549 14.629-14.629s-6.549-14.629-14.629-14.629v0zM658.286 491.886h-365.714c-8.079 0-14.629 6.549-14.629 14.629s6.549 14.629 14.629 14.629v0h365.714c8.079 0 14.629-6.549 14.629-14.629s-6.549-14.629-14.629-14.629v0zM658.286 608.914h-365.714c-8.079 0-14.629 6.549-14.629 14.629s6.549 14.629 14.629 14.629v0h365.714c8.079 0 14.629-6.549 14.629-14.629s-6.549-14.629-14.629-14.629v0zM585.143 725.943v204.8l204.8-204.8h-204.8zM0 287.086v-321.829h321.829v321.829h-321.829zM14.629 272.457h292.571v-292.571h-292.571v292.571zM154.2 202.035l-29.857 52.751 145.584-39.497-41.238-145.101-30.559 54.126c-66.677-37.786-101.464-85.285-108.734-150.279-23.918 73.465-21.153 162.026 64.805 228.001z" />
<glyph unicode="&#xe943;" glyph-name="lock-box" d="M0 960v-1024h1024v1024h-1024zM73.143 886.857h892.343v-892.343h-892.343v892.343zM776.368 465.203c-8.143 8.269-19.461 13.393-31.975 13.393-0.294 0-0.588-0.003-0.881-0.008l0.044 0.001h-15.419v91.794c0.009 0.732 0.015 1.595 0.015 2.46 0 58.426-24.42 111.149-63.611 148.517l-0.082 0.077c-37.993 38.961-91.001 63.126-149.654 63.126-0.986 0-1.971-0.007-2.954-0.020l0.149 0.002c-0.834 0.012-1.819 0.019-2.805 0.019-58.652 0-111.66-24.165-149.611-63.083l-0.042-0.044c-39.272-37.441-63.693-90.16-63.693-148.582 0-0.869 0.005-1.738 0.016-2.604l-0.001 0.132v-91.794h-15.433c-0.249 0.005-0.543 0.008-0.837 0.008-12.514 0-23.832-5.123-31.969-13.387l-0.006-0.006c-8.367-8.028-13.566-19.302-13.566-31.791 0-0.251 0.002-0.501 0.006-0.751v0.038-275.354c-0.004-0.227-0.007-0.495-0.007-0.763 0-12.463 5.176-23.716 13.495-31.729l0.014-0.013c8.146-8.269 19.465-13.393 31.981-13.393 0.292 0 0.584 0.003 0.874 0.008l-0.044-0.001h463.199c0.247-0.005 0.539-0.008 0.831-0.008 12.516 0 23.836 5.123 31.976 13.387l0.005 0.006c8.367 8.037 13.566 19.319 13.566 31.816 0 0.242-0.002 0.484-0.006 0.725v-0.036 275.354c0.003 0.206 0.005 0.45 0.005 0.694 0 12.498-5.205 23.78-13.565 31.796l-0.015 0.015zM635.494 478.588h-247.003v91.794c-0.008 0.518-0.013 1.129-0.013 1.741 0 33.307 13.876 63.373 36.162 84.733l0.042 0.040c22.44 22.147 53.285 35.825 87.325 35.825s64.885-13.678 87.339-35.838l-0.013 0.013c22.32-21.401 36.19-51.463 36.19-84.765 0-0.62-0.005-1.239-0.014-1.856l0.001 0.093v-91.794z" />
<glyph unicode="&#xe944;" glyph-name="unlock-box" d="M0 960v-1024h1024v1024h-1024zM73.143 886.857h892.343v-892.343h-892.343v892.343zM762.149 434.659c-7.877 8.232-18.951 13.348-31.22 13.348-0.272 0-0.543-0.003-0.814-0.008l0.041 0.001h-345.732v152.4c-0.010 0.583-0.016 1.27-0.016 1.958 0 32.967 13.486 62.784 35.243 84.234l0.014 0.014c21.626 22.051 51.731 35.72 85.029 35.72s63.402-13.669 85.010-35.701l0.019-0.019c21.77-21.462 35.257-51.277 35.257-84.242 0-0.691-0.006-1.38-0.018-2.068l0.001 0.103c-0.001-0.087-0.001-0.191-0.001-0.294 0-8.286 3.417-15.773 8.918-21.13l0.007-0.006c5.251-5.581 12.685-9.056 20.93-9.056 0.073 0 0.146 0 0.219 0.001h30.065c0.065-0.001 0.143-0.001 0.22-0.001 8.242 0 15.672 3.476 20.904 9.041l0.014 0.015c5.508 5.368 8.925 12.86 8.925 21.149 0 0.099 0 0.198-0.001 0.297v-0.015c0.015 0.942 0.024 2.054 0.024 3.168 0 57.733-23.643 109.945-61.774 147.48l-0.027 0.026c-36.747 38.631-88.535 62.659-145.935 62.659-0.972 0-1.942-0.007-2.911-0.021l0.147 0.002c-0.818 0.012-1.784 0.019-2.751 0.019-57.397 0-109.183-24.022-145.854-62.56l-0.079-0.084c-38.15-37.556-61.786-89.758-61.786-147.48 0-1.123 0.009-2.244 0.027-3.363l-0.002 0.169v-152.415h-15.024c-0.215 0.004-0.469 0.006-0.724 0.006-12.271 0-23.346-5.116-31.21-13.332l-0.015-0.016c-8.135-8.049-13.173-19.214-13.173-31.556 0-0.287 0.003-0.574 0.008-0.86l-0.001 0.043v-274.33c-0.005-0.245-0.008-0.535-0.008-0.825 0-12.344 5.038-23.512 13.17-31.559l0.004-0.004c7.874-8.197 18.927-13.29 31.17-13.29 0.274 0 0.547 0.003 0.82 0.008l-0.041-0.001h450.94c0.221-0.004 0.482-0.006 0.744-0.006 12.262 0 23.33 5.11 31.19 13.317l0.015 0.016c8.136 8.055 13.173 19.227 13.173 31.575 0 0.286-0.003 0.571-0.008 0.856l0.001-0.043v274.286c0.005 0.259 0.009 0.565 0.009 0.871 0 12.317-5.021 23.462-13.127 31.499l-0.003 0.003z" />
<glyph unicode="&#xe945;" glyph-name="filter-button" d="M398.222 106.667h227.556v113.778h-227.556v-113.778zM0 789.333v-113.778h1024v113.778h-1024zM170.667 391.111h682.667v113.778h-682.667v-113.778z" />
<glyph unicode="&#xe946;" glyph-name="menu" d="M640 448c0-70.692-57.308-128-128-128s-128 57.308-128 128c0 70.692 57.308 128 128 128s128-57.308 128-128zM640 64c0-70.692-57.308-128-128-128s-128 57.308-128 128c0 70.692 57.308 128 128 128s128-57.308 128-128zM640 832c0-70.692-57.308-128-128-128s-128 57.308-128 128c0 70.692 57.308 128 128 128s128-57.308 128-128z" />
<glyph unicode="&#xe947;" glyph-name="columns" d="M0 864h256v-864h-256v864zM384 864h256v-864h-256v864zM768 864h256v-864h-256v864z" />
<glyph unicode="&#xe948;" glyph-name="down-arrow" d="M557.002 179.006l448 447.996c12.669 12.669 18.998 27.653 18.998 44.997s-6.329 32.339-18.998 45.008c-12.669 12.669-27.663 18.998-44.997 18.998h-895.996c-17.331 0-32.335-6.329-44.997-18.998-12.669-12.683-19.012-27.677-19.012-45.008 0-17.334 6.343-32.328 19.012-44.997l448-447.996c12.655-12.658 27.66-19.012 44.997-19.012 17.331 0 32.325 6.35 44.994 19.012z" />
<glyph unicode="&#xe949;" glyph-name="edit" d="M636.75 787.445l208.305-208.303-527.277-527.277-208.187 208.303 527.159 527.277zM1003.117 837.683l-92.896 92.896c-35.901 35.901-94.197 35.901-130.22 0l-88.985-88.985 208.305-208.305 103.796 103.796c27.845 27.847 27.845 72.753 0 100.598zM0.581-32.618c-3.791-17.061 11.613-32.348 28.676-28.199l232.121 56.28-208.187 208.303-52.61-236.384z" />
<glyph unicode="&#xe94a;" glyph-name="delete" d="M850.596 857.284h-182.91v69.324c0 18.44-14.95 33.392-33.392 33.392h-244.586c-18.44 0-33.392-14.95-33.392-33.392v-69.324h-182.91c-18.44 0-33.392-14.95-33.392-33.392v-102.714c0-18.44 14.95-33.392 33.392-33.392h677.186c18.44 0 33.392 14.95 33.392 33.392v102.714c0.002 18.444-14.948 33.392-33.388 33.392zM600.9 857.284h-177.8v35.934h177.8v-35.934zM186.384 621.006l27.688-653.032c0.756-17.874 15.47-31.976 33.36-31.976h529.136c17.89 0 32.604 14.102 33.36 31.978l27.686 653.030h-651.23zM411.060 71.79c0-18.44-14.95-33.392-33.392-33.392-18.44 0-33.392 14.95-33.392 33.392v413.428c0 18.44 14.95 33.392 33.392 33.392 18.44 0 33.392-14.95 33.392-33.392v-413.428zM545.386 71.79c0-18.44-14.95-33.392-33.392-33.392s-33.392 14.95-33.392 33.392v413.428c0 18.44 14.95 33.392 33.392 33.392s33.392-14.95 33.392-33.392v-413.428zM679.712 71.79c0-18.44-14.95-33.392-33.392-33.392s-33.392 14.95-33.392 33.392v413.428c0 18.44 14.95 33.392 33.392 33.392s33.392-14.95 33.392-33.392v-413.428z" />
<glyph unicode="&#xe94b;" glyph-name="xlsx-file" d="M908.049 593.72h-24.589v118.641c0 0.74-0.116 1.485-0.204 2.241-0.039 4.706-1.548 9.333-4.774 12.999l-197.441 225.532c-0.062 0.058-0.12 0.078-0.159 0.14-1.177 1.315-2.547 2.409-4.002 3.354-0.428 0.288-0.861 0.529-1.311 0.783-1.255 0.682-2.59 1.255-3.961 1.668-0.374 0.097-0.708 0.25-1.078 0.347-1.492 0.355-3.040 0.575-4.607 0.575h-485.217c-22.156 0-40.156-18.021-40.156-40.158v-326.111h-24.585c-31.695 0-57.396-25.691-57.396-57.398v-298.468c0-31.677 25.7-57.394 57.396-57.394h24.585v-204.316c0-22.139 18-40.156 40.156-40.156h662.587c22.137 0 40.156 18.017 40.156 40.156v204.314h24.589c31.686 0 57.39 25.706 57.39 57.394v298.459c0.002 31.716-25.685 57.398-57.379 57.398zM180.705 919.842h465.139v-205.45c0-11.094 8.996-20.079 20.079-20.079h177.372v-100.592h-662.589v326.12zM587.509 372.332c-39.452 13.744-65.195 35.569-65.195 70.118 0 40.524 33.823 71.524 89.862 71.524 26.765 0 46.509-5.629 60.589-11.977l-11.973-43.329c-9.508 4.568-26.419 11.275-49.675 11.275s-34.529-10.574-34.529-22.908c0-15.156 13.393-21.844 44.039-33.47 41.921-15.511 61.656-37.352 61.656-70.822 0-39.823-30.657-73.65-95.843-73.65-27.125 0-53.901 7.039-67.292 14.45l10.913 44.393c14.452-7.392 36.656-14.805 59.549-14.805 24.686 0 37.704 10.216 37.704 25.725 0.009 14.788-11.264 23.261-39.805 33.475zM496.632 317.725v-45.116h-148.362v237.515h53.931v-192.399h94.431zM175.999 272.609h-61.307l68.706 120.187-66.25 117.337h61.671l20.777-43.347c7.048-14.448 12.338-26.061 17.981-39.472h0.685c5.653 15.156 10.229 25.726 16.202 39.472l20.088 43.347h61.308l-66.95-115.916 70.484-121.588h-62.009l-21.506 42.996c-8.795 16.538-14.437 28.883-21.134 42.627h-0.7c-4.94-13.744-10.916-26.089-18.323-42.627l-19.724-43.017zM843.295-12.971h-662.589v193.441h662.587v-193.441zM843.657 272.609l-21.5 42.996c-8.806 16.553-14.442 28.883-21.14 42.628h-0.684c-4.942-13.746-10.941-26.076-18.353-42.628l-19.705-42.996h-61.325l68.706 120.187-66.246 117.337h61.669l20.803-43.347c7.041-14.448 12.313-26.061 17.963-39.472h0.704c5.627 15.156 10.195 25.726 16.194 39.472l20.081 43.347h61.323l-66.952-115.916 70.471-121.588-62.009-0.021z" />
<glyph unicode="&#xe94c;" glyph-name="xlsx" d="M883.252 714.596c-0.058 4.703-1.537 9.338-4.762 13.001l-197.452 225.536c-0.039 0.058-0.097 0.078-0.155 0.136-1.178 1.32-2.531 2.404-3.982 3.352-0.431 0.284-0.863 0.534-1.315 0.786-1.276 0.682-2.589 1.244-3.961 1.657-0.37 0.112-0.704 0.26-1.078 0.362-1.509 0.347-3.040 0.573-4.607 0.573h-485.234c-22.137 0-40.158-18.024-40.158-40.158v-943.687c0-22.146 18.021-40.156 40.158-40.156h662.587c22.154 0 40.158 18.009 40.158 40.156v736.198c0 0.749-0.116 1.503-0.198 2.243zM309.175 10.843l-17.466 34.93c-7.153 13.464-11.725 23.483-17.167 34.639h-0.573c-4.006-11.155-8.869-21.175-14.877-34.639l-16.034-34.93h-49.795l55.819 97.626-53.81 95.303h50.093l16.887-35.225c5.721-11.721 10.018-21.155 14.607-32.039h0.56c4.589 12.315 8.303 20.895 13.161 32.039l16.325 35.225h49.795l-54.381-94.154 57.256-98.777h-50.4zM503.494 10.843h-120.51v192.929h43.799v-156.264h76.711v-36.665zM576.46 8.001c-22.029 0-43.775 5.722-54.652 11.732l8.858 36.060c11.742-5.999 29.783-12.009 48.37-12.009 20.049 0 30.627 8.285 30.627 20.902 0 11.999-9.157 18.88-32.34 27.176-32.050 11.155-52.955 28.901-52.955 56.959 0 32.913 27.471 58.098 73 58.098 21.737 0 37.786-4.568 49.217-9.734l-9.725-35.208c-7.736 3.717-21.47 9.166-40.365 9.166-18.891 0-28.039-8.58-28.039-18.618 0-12.302 10.873-17.742 35.774-27.176 34.060-12.61 50.078-30.341 50.078-57.532 0.004-32.345-24.899-59.816-77.85-59.816zM785.391 10.843l-17.47 34.93c-7.159 13.464-11.727 23.483-17.178 34.639h-0.549c-4-11.155-8.881-21.175-14.894-34.639l-16.030-34.93h-49.8l55.814 97.626-53.814 95.303h50.095l16.904-35.225c5.717-11.721 9.999-21.155 14.579-32.039h0.579c4.568 12.315 8.292 20.895 13.167 32.039l16.316 35.225h49.802l-54.38-94.154 57.243-98.777h-50.383zM180.705 278.159v641.674h465.155v-205.466c0-11.084 8.981-20.077 20.079-20.077h177.353l0.019-416.13h-662.606zM580.705 702.261h-332.961v-311.219h509.482v311.219h-176.52zM580.705 551.671h-156.441v65.255h156.441v-65.255zM257.784 692.22h156.441v-65.255h-156.441v65.255zM257.784 616.925h156.441v-65.255h-156.441v65.255zM257.784 541.632h156.441v-65.253h-156.441v65.253zM257.784 401.079v65.26h156.441v-65.26h-156.441zM424.264 401.079v65.26h156.441v-65.26h-156.441zM747.194 401.079h-156.451v65.26h156.439v-65.26h0.011zM747.194 551.671h-156.451v65.255h156.439v-65.255h0.011zM590.745 626.966v65.255h156.439v-65.255h-156.439z" />
<glyph unicode="&#xe94d;" glyph-name="csv-file" d="M908.037 593.72h-24.585v118.652c0 0.745-0.12 1.485-0.217 2.241-0.039 4.706-1.539 9.338-4.764 12.999l-197.432 225.521c-0.058 0.063-0.12 0.082-0.159 0.14-1.175 1.32-2.547 2.413-3.999 3.354-0.431 0.293-0.863 0.534-1.315 0.783-1.255 0.682-2.589 1.255-3.961 1.668-0.372 0.097-0.704 0.25-1.076 0.351-1.494 0.351-3.042 0.571-4.607 0.571h-485.217c-22.157 0-40.156-18.021-40.156-40.158v-326.111h-24.584c-31.697 0-57.398-25.691-57.398-57.392v-298.465c0-31.686 25.7-57.403 57.398-57.403h24.584v-204.316c0-22.139 17.998-40.156 40.156-40.156h662.589c22.137 0 40.158 18.017 40.158 40.156v204.314h24.585c31.686 0 57.39 25.706 57.39 57.394v298.465c0.002 31.71-25.704 57.392-57.39 57.392zM180.705 919.842h465.137v-205.45c0-11.094 8.998-20.079 20.079-20.079h177.374v-100.592h-662.589v326.12zM483 375.098c-49.828 17.352-82.293 44.922-82.293 88.505 0 51.18 42.696 90.333 113.426 90.333 33.817 0 58.731-7.118 76.513-15.141l-15.109-54.721c-12.009 5.803-33.359 14.254-62.733 14.254-29.353 0-43.588-13.352-43.588-28.92 0-19.138 16.896-27.583 55.618-42.268 52.93-19.571 77.844-47.137 77.844-89.411 0-50.256-38.699-92.981-121.007-92.981-34.248 0-68.073 8.92-84.971 18.247l13.783 56.059c18.25-9.364 46.27-18.687 75.198-18.687 31.135 0 47.602 12.902 47.602 32.489-0.009 18.695-14.254 29.361-50.282 42.244zM129.751 394.686c0 102.31 72.975 159.25 163.704 159.25 35.152 0 61.843-7.118 73.863-13.352l-13.805-53.817c-13.783 5.76-32.93 11.092-56.946 11.092-53.829 0-95.633-32.45-95.633-99.169 0-60.059 35.58-97.863 96.1-97.863 20.445 0 43.136 4.441 56.479 9.783l10.24-52.94c-12.461-6.238-40.479-12.922-76.961-12.922-103.653-0.002-157.041 64.528-157.041 149.938zM843.295-12.96h-662.589v193.43h662.589v-193.43zM798.442 249.215h-79.185l-96.089 299.82h74.307l36.467-126.8c10.233-35.571 19.571-69.823 26.705-107.196h1.324c7.56 36.041 16.893 71.627 27.129 105.881l38.262 128.115h72.088l-101.008-299.82z" />
<glyph unicode="&#xe94e;" glyph-name="csv" d="M883.234 714.612c-0.039 4.687-1.539 9.335-4.763 13.001l-197.434 225.529c-0.058 0.065-0.115 0.084-0.156 0.143-1.177 1.313-2.549 2.387-3.999 3.352-0.431 0.27-0.863 0.53-1.314 0.785-1.255 0.682-2.588 1.236-3.96 1.647-0.374 0.117-0.706 0.27-1.078 0.366-1.491 0.353-3.040 0.565-4.609 0.565h-485.215c-22.157 0-40.157-18.020-40.157-40.159v-943.685c0-22.136 18-40.159 40.157-40.159h662.587c22.138 0 40.159 18.020 40.159 40.159v736.206c-0.002 0.764-0.119 1.504-0.218 2.25zM336.687 38.491c16.604 0 35.035 3.607 45.877 7.94l8.314-42.999c-10.121-5.060-32.877-10.491-62.514-10.491-84.201 0-127.568 52.41-127.568 121.783 0 83.119 59.268 129.374 132.98 129.374 28.549 0 50.235-5.774 60.005-10.844l-11.216-43.715c-11.192 4.694-26.745 9.009-46.249 9.009-43.721 0-77.681-26.373-77.681-80.557-0.002-48.792 28.9-79.499 78.053-79.499zM486.671-7.057c-27.82 0-55.294 7.236-69.019 14.823l11.192 45.53c14.828-7.589 37.587-15.176 61.079-15.176 25.293 0 38.666 10.491 38.666 26.392 0 15.176-11.558 23.841-40.832 34.314-40.465 14.098-66.844 36.489-66.844 71.901 0 41.568 34.687 73.374 92.147 73.374 27.461 0 47.705-5.774 62.146-12.294l-12.274-44.449c-9.775 4.705-27.098 11.569-50.962 11.569-23.843 0-35.407-10.844-35.407-23.492 0-15.559 13.72-22.412 45.182-34.334 42.99-15.912 63.236-38.294 63.236-72.626-0.020-40.824-31.452-75.53-98.31-75.53zM743.979-3.421h-64.314l-78.057 243.549h60.352l29.629-103c8.314-28.902 15.903-56.725 21.687-87.088h1.078c6.137 29.275 13.726 58.186 22.038 86.001l31.079 104.077h58.549l-82.041-243.538zM180.706 278.167v641.674h465.135v-205.471c0-11.084 9.002-20.078 20.080-20.078h177.372v-416.138l-662.587 0.013zM701.234 643.843h-371.095v-221.628h371.324v172.317h-0.227v49.311zM453.117 426.489h-118.682v50.060h118.68v-50.060zM453.117 480.829h-118.682v50.055h118.68v-50.055zM453.117 535.182h-118.682v50.034h118.68v-50.034zM455.279 589.515v50.034h118.682v-50.034h-118.682zM696.43 427.237h-46.863v143.334h-32.176v-143.334h-26.805v113.647h-32.177v-113.647h-23.607v84.333h-32.181v-84.333h-45.215v157.98h239.022v-157.98zM696.94 594.534h-0.509v-5.020h-118.174v50.034h118.686v-45.015z" />
<glyph unicode="&#xe94f;" glyph-name="tag" d="M999.003 415.896l-483.274 482.597c-17.128 17.135-40.104 31.661-68.941 43.598-28.847 11.939-55.205 17.909-79.090 17.909h-281.177c-23.435 0-43.711-8.568-60.835-25.681-17.123-17.123-25.681-37.4-25.681-60.835v-281.177c0-23.882 5.963-50.234 17.907-79.080s26.472-51.59 43.6-68.268l483.267-483.949c16.674-16.674 36.936-25.009 60.835-25.009 23.413 0 43.934 8.336 61.505 25.009l331.875 332.547c16.674 16.681 25.002 36.941 25.002 60.825 0 23.432-8.328 43.936-24.993 61.514zM277.463 682.54c-16.908-16.898-37.291-25.352-61.176-25.352-23.875 0-44.268 8.454-61.166 25.352-16.898 16.901-25.345 37.284-25.345 61.166 0 23.885 8.447 44.275 25.345 61.166 16.901 16.901 37.291 25.355 61.166 25.355 23.885 0 44.275-8.454 61.176-25.355 16.891-16.891 25.345-37.284 25.345-61.166s-8.444-44.265-25.345-61.166z" />
<glyph unicode="&#xe950;" glyph-name="table2" d="M985.734 905.336h-947.48c-21.118 0-38.254-17.173-38.254-38.254v-838.165c0-12.953 6.493-24.369 16.392-31.301v-6.030h13.714c2.625-0.577 5.342-0.919 8.149-0.919h947.48c2.781 0 5.489 0.341 8.121 0.919h1.881v0.575c16.224 4.44 28.261 19.157 28.261 36.756v838.154c0.002 21.093-17.178 38.266-38.263 38.266zM151.202 24.378h-115.789c-1.549 0.953-2.625 2.593-2.625 4.536v99.312h118.414v-103.849zM151.202 161.021h-118.414v107.697h118.414v-107.697zM151.202 301.5h-118.414v113.704h118.414v-113.704zM151.202 447.994h-118.414v122.994h118.414v-122.994zM151.202 603.781h-118.414v120.259h118.414v-120.259zM427.254 24.378h-243.25v103.849h243.25v-103.849zM427.254 161.021h-243.25v107.697h243.25v-107.697zM427.254 301.5h-243.25v113.704h243.25v-113.704zM427.254 447.994h-243.25v122.994h243.25v-122.994zM427.254 603.781h-243.25v120.259h243.25v-120.259zM427.254 756.839h-243.25v115.716h243.25v-115.716zM706.058 24.378h-246.009v103.849h246.009v-103.849zM706.058 161.021h-246.009v107.697h246.009v-107.697zM706.058 301.5h-246.009v113.704h246.009v-113.704zM706.058 447.994h-246.009v122.994h246.009v-122.994zM706.058 603.781h-246.009v120.259h246.009v-120.259zM706.058 756.839h-246.009v115.716h246.009v-115.716zM991.201 28.916c0-1.936-1.1-3.574-2.632-4.536h-249.713v103.849h252.345v-99.312zM991.201 161.021h-252.345v107.697h252.345v-107.697zM991.201 301.5h-252.345v113.704h252.345v-113.704zM991.201 447.994h-252.345v122.994h252.345v-122.994zM991.201 603.781h-252.345v120.259h252.345v-120.259zM991.201 756.839h-252.345v115.716h246.881c3.006 0 5.466-2.458 5.466-5.473v-110.243zM402.872 327.124h-196.829v68.456h196.827v-68.456zM681.009 324.542h-196.827v68.46h196.827v-68.46zM966.002 326.047h-196.824v68.46h196.824v-68.46z" />
<glyph unicode="&#xe951;" glyph-name="table-grid" d="M995.087 852.309c-19.289 19.285-42.458 28.921-69.545 28.921h-827.079c-27.076 0-50.258-9.637-69.543-28.921-19.28-19.289-28.921-42.462-28.921-69.545v-669.543c0-27.085 9.641-50.241 28.921-69.536 19.285-19.289 42.464-28.915 69.543-28.915h827.079c27.085 0 50.254 9.626 69.545 28.915 19.28 19.295 28.915 42.464 28.915 69.536v669.543c0 27.083-9.635 50.262-28.915 69.545zM315.086 113.242c0-5.761-1.852-10.467-5.548-14.163-3.69-3.688-8.404-5.522-14.155-5.522h-196.919c-5.738 0-10.46 1.836-14.155 5.522-3.692 3.697-5.535 8.402-5.535 14.163v118.16c0 5.753 1.843 10.46 5.535 14.14 3.694 3.705 8.417 5.548 14.155 5.548h196.926c5.749 0 10.471-1.843 14.155-5.548 3.688-3.679 5.539-8.387 5.539-14.14v-118.16zM315.086 349.539c0-5.74-1.852-10.462-5.548-14.148-3.69-3.694-8.404-5.537-14.155-5.537h-196.919c-5.738 0-10.46 1.843-14.155 5.537-3.692 3.688-5.535 8.408-5.535 14.148v118.158c0 5.742 1.843 10.462 5.535 14.155 3.694 3.684 8.417 5.529 14.155 5.529h196.926c5.749 0 10.462-1.843 14.155-5.529 3.688-3.692 5.539-8.413 5.539-14.155v-118.158zM315.086 585.847c0-5.746-1.852-10.46-5.548-14.155-3.69-3.684-8.404-5.535-14.155-5.535h-196.919c-5.738 0-10.46 1.852-14.155 5.535-3.692 3.697-5.535 8.408-5.535 14.155v118.154c0 5.746 1.843 10.467 5.535 14.155 3.694 3.692 8.417 5.535 14.155 5.535h196.926c5.749 0 10.462-1.843 14.155-5.535 3.688-3.688 5.539-8.408 5.539-14.155v-118.154zM630.163 113.242c0-5.761-1.843-10.467-5.524-14.163-3.688-3.688-8.406-5.522-14.161-5.522h-196.939c-5.74 0-10.46 1.836-14.155 5.522-3.692 3.697-5.535 8.402-5.535 14.163v118.16c0 5.753 1.843 10.46 5.535 14.14 3.694 3.705 8.415 5.548 14.155 5.548h196.93c5.753 0 10.473-1.843 14.161-5.548 3.673-3.679 5.518-8.387 5.518-14.14v-118.158h0.015zM630.163 349.539c0-5.74-1.843-10.462-5.524-14.148-3.688-3.694-8.406-5.537-14.161-5.537h-196.939c-5.74 0-10.46 1.843-14.155 5.537-3.692 3.688-5.535 8.408-5.535 14.148v118.158c0 5.742 1.843 10.462 5.535 14.155 3.694 3.684 8.415 5.529 14.155 5.529h196.93c5.753 0 10.473-1.843 14.161-5.529 3.673-3.692 5.518-8.413 5.518-14.155v-118.158h0.015zM630.163 585.847c0-5.746-1.843-10.46-5.524-14.155-3.688-3.684-8.406-5.535-14.161-5.535h-196.939c-5.74 0-10.46 1.852-14.155 5.535-3.692 3.697-5.535 8.408-5.535 14.155v118.154c0 5.746 1.843 10.467 5.535 14.155 3.694 3.692 8.415 5.535 14.155 5.535h196.93c5.753 0 10.473-1.843 14.161-5.535 3.673-3.688 5.518-8.408 5.518-14.155v-118.154h0.015zM945.23 113.242c0-5.761-1.843-10.467-5.522-14.163-3.703-3.688-8.423-5.522-14.163-5.522h-196.906c-5.761 0-10.48 1.836-14.161 5.522-3.688 3.697-5.518 8.402-5.518 14.163v118.16c0 5.753 1.83 10.46 5.518 14.14 3.681 3.705 8.4 5.548 14.161 5.548h196.906c5.74 0 10.462-1.843 14.163-5.548 3.679-3.679 5.522-8.387 5.522-14.14v-118.16zM945.23 349.539c0-5.74-1.843-10.462-5.522-14.148-3.703-3.694-8.423-5.537-14.163-5.537h-196.906c-5.761 0-10.48 1.843-14.161 5.537-3.688 3.688-5.518 8.408-5.518 14.148v118.158c0 5.742 1.83 10.462 5.518 14.155 3.681 3.684 8.4 5.529 14.161 5.529h196.906c5.74 0 10.462-1.843 14.163-5.529 3.679-3.692 5.522-8.413 5.522-14.155v-118.158zM945.23 585.847c0-5.746-1.843-10.46-5.522-14.155-3.703-3.684-8.423-5.535-14.163-5.535h-196.906c-5.761 0-10.48 1.852-14.161 5.535-3.688 3.697-5.518 8.408-5.518 14.155v118.154c0 5.746 1.83 10.467 5.518 14.155 3.681 3.692 8.4 5.535 14.161 5.535h196.906c5.74 0 10.462-1.843 14.163-5.535 3.679-3.688 5.522-8.408 5.522-14.155v-118.154z" />
<glyph unicode="&#xe952;" glyph-name="dashboard" d="M983.438 537.144c-27.042 63.244-63.424 117.712-109.138 163.435-45.711 45.715-100.191 82.094-163.437 109.14-63.248 27.046-129.52 40.572-198.863 40.572-69.339 0-135.623-13.528-198.859-40.572-63.236-27.056-117.712-63.424-163.425-109.14-45.723-45.723-82.096-100.191-109.148-163.435-27.046-63.244-40.57-129.522-40.57-198.859 0-99.803 26.856-191.816 80.571-276.007 7.233-11.048 17.521-16.568 30.856-16.568h801.146c13.33 0 23.617 5.522 30.85 16.568 53.719 84.57 80.575 176.577 80.575 276.007 0 69.337-13.518 135.615-40.56 198.859zM460.281 755.713c14.294 14.288 31.527 21.434 51.718 21.434 20.193 0 37.425-7.147 51.714-21.434 14.288-14.28 21.438-31.521 21.438-51.712s-7.149-37.425-21.438-51.712-31.521-21.434-51.714-21.434c-20.191 0-37.431 7.147-51.718 21.434-14.28 14.288-21.43 31.521-21.43 51.712s7.141 37.429 21.43 51.712zM198.002 286.571c-14.286-14.28-31.527-21.446-51.718-21.446-20.185 0-37.425 7.165-51.712 21.446-14.288 14.274-21.426 31.521-21.426 51.714 0 20.191 7.137 37.423 21.426 51.712s31.527 21.432 51.712 21.432c20.191 0 37.439-7.143 51.718-21.432s21.43-31.521 21.43-51.712c0-20.193-7.149-37.425-21.43-51.714zM307.72 542.572c-14.294-14.284-31.527-21.434-51.72-21.434s-37.431 7.157-51.72 21.434c-14.28 14.28-21.428 31.521-21.428 51.712s7.139 37.425 21.428 51.712c14.294 14.288 31.527 21.434 51.72 21.434 20.191 0 37.431-7.147 51.72-21.434 14.28-14.288 21.428-31.521 21.428-51.712 0-20.185-7.149-37.423-21.428-51.712zM631.424 537.712l-57.72-218.283c19.062-12.945 32.776-30.274 41.158-51.998 8.37-21.714 9.521-44 3.424-66.857-7.618-29.335-24.574-51.624-50.863-66.855-26.289-15.239-54.091-19.056-83.433-11.432-29.327 7.618-51.62 24.568-66.853 50.857-15.233 26.295-19.042 54.093-11.424 83.437 6.092 22.849 18.093 41.61 36 56.267 17.901 14.677 38.28 22.953 61.137 24.862l57.716 218.287c2.664 9.903 8.378 17.435 17.136 22.578 8.768 5.134 17.903 6.373 27.432 3.709 9.535-2.67 16.862-8.284 21.998-16.852 5.156-8.58 6.579-17.817 4.291-27.72zM716.286 542.572c-14.288 14.28-21.438 31.521-21.438 51.712s7.149 37.425 21.438 51.712 31.521 21.434 51.714 21.434c20.191 0 37.423-7.147 51.712-21.434s21.44-31.521 21.44-51.712c0-20.185-7.151-37.425-21.44-51.712-14.288-14.284-31.521-21.434-51.712-21.434-20.193 0-37.425 7.149-51.714 21.434zM929.425 286.571c-14.288-14.28-31.521-21.446-51.712-21.446-20.193 0-37.425 7.165-51.714 21.446-14.288 14.274-21.432 31.521-21.432 51.714 0 20.191 7.143 37.423 21.432 51.712s31.521 21.432 51.714 21.432c20.191 0 37.423-7.143 51.712-21.432s21.424-31.521 21.424-51.712c0-20.193-7.137-37.425-21.424-51.714z" />
<glyph unicode="&#xe953;" glyph-name="frame" d="M1007.776 851.847h-991.552c-8.959 0-16.224-7.262-16.224-16.224v-775.246c0-8.962 7.265-16.224 16.224-16.224h991.552c8.965 0 16.224 7.262 16.224 16.224v775.246c0 8.962-7.259 16.224-16.224 16.224zM926.655 173.501l-223.133 231.077c-2.466 2.547-6.499 2.713-9.16 0.37l-154.762-136.214-197.811 243.559c-1.285 1.59-3.164 2.499-5.289 2.453-2.047-0.042-3.959-1.025-5.182-2.667l-233.974-313.952v556.376h829.311v-581.001zM681.603 520.149c43.928 0 79.592 35.635 79.592 79.599 0 43.951-35.664 79.605-79.592 79.605-43.964 0-79.589-35.654-79.589-79.605 0-43.961 35.628-79.599 79.589-79.599z" />
<glyph unicode="&#xe954;" glyph-name="printer" d="M320.015 192.006h319.977v-64.011h-319.977v64.011zM256.019 895.997h511.977v-127.999h63.99v127.999c0.002 35.312-28.621 64.003-63.99 64.003h-511.977c-35.345 0-64.003-28.691-64.003-64.003v-127.999h64.003v127.999zM320.015 320.001h383.967v-64.003h-383.967v64.003zM959.991 703.998h-895.974c-35.345 0-64.003-28.683-64.003-63.996v-384.003c0-35.368 28.657-63.99 64.003-63.99h127.999v-192.006c0-35.379 28.657-64.001 64.003-64.001h511.977c35.368 0 63.99 28.621 63.99 64.001v192.006h128.003c35.371 0 63.992 28.621 63.992 63.99v384.003c0.002 35.314-28.619 63.996-63.99 63.996zM767.996 0.001h-511.977v384.003h511.977v-384.003zM895.98 511.996c-35.371 0-63.992 28.626-63.992 64.003 0 35.309 28.621 64.003 63.992 64.003 35.381 0 64.011-28.691 64.011-64.003 0-35.375-28.632-64.003-64.011-64.003z" />
<glyph unicode="&#xe955;" glyph-name="input" d="M611.992 573.439v67.237h-586.131c-14.283 0-25.86-11.58-25.86-25.86v-333.628c0-14.278 11.578-25.86 25.86-25.86h586.131v67.237h-544.755v250.874h544.755zM998.142 640.676h-220.649v-67.237h179.267v-250.874h-179.267v-67.237h220.644c14.278 0 25.86 11.583 25.86 25.86v333.628c0.005 14.28-11.578 25.86-25.855 25.86zM791.489 216.72h-60.85c-1.236 0-2.273 1.037-2.273 2.273v458.009c0 1.239 1.037 2.278 2.273 2.278h60.85c14.278 0 25.86 11.58 25.86 25.86v15.516c0 14.28-11.583 25.86-25.86 25.86h-60.85c-12.767 0-25.066-3.447-35.892-10.018-10.83 6.571-23.127 10.018-35.892 10.018h-60.847c-14.283 0-25.86-11.58-25.86-25.86v-15.516c0-14.28 11.578-25.86 25.86-25.86h60.847c1.234 0 2.273-1.042 2.273-2.278v-458.006c0-1.234-1.040-2.273-2.273-2.273h-60.847c-14.283 0-25.86-11.583-25.86-25.86v-15.516c0-14.278 11.578-25.86 25.86-25.86h60.847c12.765 0 25.064 3.447 35.892 10.018 10.825-6.571 23.124-10.018 35.892-10.018h60.85c14.278 0 25.86 11.583 25.86 25.86v15.516c0 14.278-11.58 25.858-25.86 25.858z" />
<glyph unicode="&#xe956;" glyph-name="textarea" d="M61.44 939.52v0c-22.622 0-40.96-18.338-40.96-40.96v-901.12c0-22.622 18.338-40.96 40.96-40.96h901.12c22.622 0 40.96 18.338 40.96 40.96v901.12c0 22.622-18.338 40.96-40.96 40.96h-901.12zM86.016 873.984h851.968v-851.968h-851.968v851.968zM905.216 183.808v-122.88h-122.88zM286.72 601.786h-30.72v185.995h30.72c5.645 0.082 10.189 4.677 10.189 10.333s-4.544 10.251-10.181 10.333h-81.928c-5.645-0.082-10.189-4.677-10.189-10.333s4.544-10.251 10.181-10.333h30.728v-185.995h-30.72c-5.645-0.082-10.189-4.677-10.189-10.333s4.544-10.251 10.181-10.333h81.928c5.645 0.082 10.189 4.677 10.189 10.333s-4.544 10.251-10.181 10.333h-0.008z" />
</font>
</defs>
</svg>
